<?xml version="1.0" encoding="utf-8"?>
<!-- Generator: Adobe Illustrator 27.5.0, SVG Export Plug-In . SVG Version: 6.00 Build 0)  -->
<svg version="1.1" xmlns="http://www.w3.org/2000/svg" xmlns:xlink="http://www.w3.org/1999/xlink" x="0px" y="0px"
	 viewBox="0 0 1122 1122" style="enable-background:new 0 0 1122 1122;" xml:space="preserve">
<g id="Bg">
	<g>
		<g>
			<rect style="fill:#FFFFFF;" width="1122" height="1122"/>
		</g>
	</g>
</g>
<g id="Object">
	<g>
		<path style="fill:#616E7D;" d="M197.995,258.467c-11.922,0-21.588,9.668-21.588,21.576v469.882
			c0,11.911,9.665,21.575,21.588,21.575h726.018c11.922,0,21.581-9.665,21.581-21.575V280.043c0-11.908-9.659-21.576-21.581-21.576
			H197.995z M897.25,692.635H224.758V305.352H897.25V692.635z"/>
		<path style="fill:#616E7D;" d="M660.457,781.18H461.538c-1.308,0-2.724,1.22-4.001,3.489l-26.786,47.173
			c-5.895,10.394-6.397,31.691-0.521,31.691h261.546c5.852,0,5.374-21.297-0.527-31.691l-26.774-47.173
			C663.186,782.399,661.77,781.18,660.457,781.18z"/>
		<path style="fill:#FFFFFF;" d="M224.758,692.635H897.25V305.352H224.758V692.635z M556.416,565.164h-146.78v-17h146.78V565.164z
			 M723.15,659.089H565.585v-12.891H723.15V659.089z M868.121,636.951H565.585v-12.885h302.536V636.951z M868.121,614.833H565.585
			v-12.882h302.536V614.833z M868.121,592.704H565.585v-12.885h302.536V592.704z M565.585,565.164v-17h146.781v17H565.585z
			 M868.315,565.164H721.534v-17h146.781V565.164z M253.698,336.351h614.617v197.581H253.698V336.351z M253.698,548.164h146.768v17
			H253.698V548.164z M253.698,580.83h302.518v85.83H253.698V580.83z"/>
		<rect x="253.698" y="336.351" style="fill:#AAD4C8;" width="614.617" height="197.581"/>
		<rect x="253.698" y="548.164" style="fill:#82BFAB;" width="146.768" height="17"/>
		<rect x="253.698" y="580.83" style="fill:#82BFAB;" width="302.518" height="85.83"/>
		<rect x="409.636" y="548.164" style="fill:#82BFAB;" width="146.78" height="17"/>
		<rect x="565.585" y="548.164" style="fill:#82BFAB;" width="146.781" height="17"/>
		<rect x="565.585" y="579.819" style="fill:#AAD4C8;" width="302.536" height="12.885"/>
		<rect x="565.585" y="601.951" style="fill:#AAD4C8;" width="302.536" height="12.882"/>
		<rect x="565.585" y="624.066" style="fill:#AAD4C8;" width="302.536" height="12.885"/>
		<rect x="565.585" y="646.198" style="fill:#AAD4C8;" width="157.565" height="12.891"/>
		<rect x="721.534" y="548.164" style="fill:#82BFAB;" width="146.781" height="17"/>
	</g>
</g>
</svg>
