<?xml version="1.0" encoding="utf-8"?>
<!-- Generator: Adobe Illustrator 27.5.0, SVG Export Plug-In . SVG Version: 6.00 Build 0)  -->
<svg version="1.1" id="Capa_1" xmlns="http://www.w3.org/2000/svg" xmlns:xlink="http://www.w3.org/1999/xlink" x="0px" y="0px"
	 viewBox="0 0 425.2 425.2" style="enable-background:new 0 0 425.2 425.2;" xml:space="preserve">
<g>
	<rect x="0" y="0.001" style="fill:#7AD0E2;" width="425.2" height="425.199"/>
	<rect x="0" y="371.414" style="fill:#8AB14B;" width="425.2" height="53.785"/>
	<polygon style="fill:#A7A9AC;" points="283.284,425.199 135.295,425.199 165.493,371.414 262.197,371.414 	"/>
	<g>
		<rect x="101.198" y="57.935" style="fill:#F0D6B3;" width="222.804" height="313.479"/>
		<g>
			<rect x="165.493" y="293.506" style="fill:#2D2932;" width="96.704" height="77.908"/>
			<rect x="170.059" y="298.783" style="fill:#00A9BB;" width="87.987" height="72.631"/>
			<rect x="192.056" y="293.506" style="fill:#2D2932;" width="3.321" height="77.908"/>
			<rect x="232.314" y="293.506" style="fill:#2D2932;" width="3.321" height="77.908"/>
			<rect x="167.627" y="311.648" style="fill:#2D2932;" width="92.495" height="3.32"/>
			<polygon style="opacity:0.5;fill:#FFFFFF;" points="171.304,368.924 171.304,315.938 190.949,315.938 			"/>
			<polygon style="opacity:0.5;fill:#FFFFFF;" points="171.304,310.818 171.304,299.613 190.949,299.613 			"/>
			<polygon style="opacity:0.5;fill:#FFFFFF;" points="237.018,368.924 237.018,315.938 256.663,315.938 			"/>
			<polygon style="opacity:0.5;fill:#FFFFFF;" points="237.018,310.818 237.018,299.613 256.663,299.613 			"/>
			<polygon style="opacity:0.5;fill:#FFFFFF;" points="196.898,368.924 196.898,315.938 210.179,315.938 			"/>
			<polygon style="opacity:0.5;fill:#FFFFFF;" points="216.682,369.686 216.682,316.699 229.963,316.699 			"/>
			<polygon style="opacity:0.5;fill:#FFFFFF;" points="196.898,310.818 196.898,299.613 230.793,299.613 			"/>
			
				<line style="fill:none;stroke:#007F8D;stroke-width:0.8301;stroke-miterlimit:10;" x1="214.883" y1="371.414" x2="214.883" y2="314.969"/>
			<path style="fill:#FFCA3F;" d="M213.242,345.045c0,0.467-0.361,0.844-0.806,0.844l0,0c-0.444,0-0.805-0.377-0.805-0.844v-7.65
				c0-0.465,0.361-0.844,0.805-0.844l0,0c0.445,0,0.806,0.379,0.806,0.844V345.045z"/>
			<path style="fill:#FFCA3F;" d="M217.972,345.045c0,0.467-0.36,0.844-0.805,0.844l0,0c-0.444,0-0.805-0.377-0.805-0.844v-7.65
				c0-0.465,0.36-0.844,0.805-0.844l0,0c0.445,0,0.805,0.379,0.805,0.844V345.045z"/>
		</g>
		<g>
			<rect x="119.247" y="300.166" style="fill:#2D2932;" width="32.096" height="51.742"/>
			<rect x="122.165" y="304.869" style="fill:#00A9BB;" width="26.26" height="42.334"/>
			<polygon style="opacity:0.5;fill:#FFFFFF;" points="124.227,343.879 124.227,308.195 146.362,308.195 			"/>
			<rect x="133.911" y="300.166" style="fill:#2D2932;" width="2.767" height="51.742"/>
			<rect x="120.354" y="324.654" style="fill:#2D2932;" width="29.883" height="2.766"/>
		</g>
		<g>
			<rect x="278.304" y="300.166" style="fill:#2D2932;" width="32.096" height="51.742"/>
			<rect x="281.221" y="304.869" style="fill:#00A9BB;" width="26.261" height="42.334"/>
			<polygon style="opacity:0.5;fill:#FFFFFF;" points="283.284,343.879 283.284,308.195 305.419,308.195 			"/>
			<rect x="292.968" y="300.166" style="fill:#2D2932;" width="2.767" height="51.742"/>
			<rect x="279.411" y="324.654" style="fill:#2D2932;" width="29.882" height="2.766"/>
		</g>
		<g>
			<rect x="122.396" y="179.825" style="fill:#2D2932;" width="41.915" height="57.296"/>
			<rect x="126.207" y="185.034" style="fill:#00A9BB;" width="34.293" height="46.878"/>
			<polygon style="opacity:0.5;fill:#FFFFFF;" points="128.9,228.23 128.9,188.716 157.806,188.716 			"/>
			<rect x="141.547" y="179.825" style="fill:#2D2932;" width="3.613" height="57.296"/>
			<rect x="123.841" y="206.942" style="fill:#2D2932;" width="39.024" height="3.063"/>
		</g>
		<g>
			<rect x="266.872" y="179.825" style="fill:#2D2932;" width="41.915" height="57.296"/>
			<rect x="270.683" y="185.034" style="fill:#00A9BB;" width="34.293" height="46.878"/>
			<polygon style="opacity:0.5;fill:#FFFFFF;" points="273.376,228.23 273.376,188.716 302.283,188.716 			"/>
			<rect x="286.023" y="179.825" style="fill:#2D2932;" width="3.613" height="57.296"/>
			<rect x="268.318" y="206.942" style="fill:#2D2932;" width="39.024" height="3.063"/>
		</g>
		<g>
			<rect x="194.635" y="179.825" style="fill:#2D2932;" width="41.914" height="57.296"/>
			<rect x="198.444" y="185.034" style="fill:#00A9BB;" width="34.294" height="46.878"/>
			<polygon style="opacity:0.5;fill:#FFFFFF;" points="201.138,228.23 201.138,188.716 230.045,188.716 			"/>
			<rect x="213.784" y="179.825" style="fill:#2D2932;" width="3.614" height="57.296"/>
			<rect x="196.08" y="206.942" style="fill:#2D2932;" width="39.023" height="3.063"/>
		</g>
		<g>
			<rect x="122.396" y="96.909" style="fill:#2D2932;" width="41.915" height="57.297"/>
			<rect x="126.207" y="102.118" style="fill:#00A9BB;" width="34.293" height="46.879"/>
			<polygon style="opacity:0.5;fill:#FFFFFF;" points="128.9,145.314 128.9,105.8 157.806,105.8 			"/>
			<rect x="141.547" y="96.909" style="fill:#2D2932;" width="3.613" height="57.297"/>
			<rect x="123.841" y="124.026" style="fill:#2D2932;" width="39.024" height="3.063"/>
		</g>
		<g>
			<rect x="266.872" y="96.909" style="fill:#2D2932;" width="41.915" height="57.297"/>
			<rect x="270.683" y="102.118" style="fill:#00A9BB;" width="34.293" height="46.879"/>
			<polygon style="opacity:0.5;fill:#FFFFFF;" points="273.376,145.314 273.376,105.8 302.283,105.8 			"/>
			<rect x="286.023" y="96.909" style="fill:#2D2932;" width="3.613" height="57.297"/>
			<rect x="268.318" y="124.026" style="fill:#2D2932;" width="39.024" height="3.063"/>
		</g>
		<g>
			<rect x="194.635" y="96.909" style="fill:#2D2932;" width="41.914" height="57.297"/>
			<rect x="198.444" y="102.118" style="fill:#00A9BB;" width="34.294" height="46.879"/>
			<polygon style="opacity:0.5;fill:#FFFFFF;" points="201.138,145.314 201.138,105.8 230.045,105.8 			"/>
			<rect x="213.784" y="96.909" style="fill:#2D2932;" width="3.614" height="57.297"/>
			<rect x="196.08" y="124.026" style="fill:#2D2932;" width="39.023" height="3.063"/>
		</g>
		<rect x="94.69" y="261.941" style="fill:#D3AA97;" width="235.82" height="14.521"/>
		<rect x="94.69" y="53.784" style="fill:#D3AA97;" width="235.82" height="14.523"/>
		<polygon style="fill:#9D7F72;" points="330.51,68.308 94.69,68.308 101.198,80.063 324.002,80.063 		"/>
	</g>
</g>
<g>
	<path style="fill:#6F913C;" d="M281.75,367.647c0.205,0.585,1.74,4.263,8.342,4.264h0.004c0.881,0,1.826-0.066,2.811-0.197
		c0.141-0.019,0.283-0.029,0.424-0.029l54.752-0.003c1.992,0,4.758-1.018,6.73-2.476c2.609-1.933,2.764-5.416,1.76-8.014
		c-1.158-2.996-3.783-5.168-6.26-5.168c-0.678,0-1.363,0.161-2.033,0.482c-0.191,0.09-0.396,0.22-0.635,0.412
		c-1.133,1.229-2.26,2.079-3.027,2.586c-0.242,0.169-0.549,0.353-0.85,0.511c-0.018,0.012-0.043,0.022-0.063,0.033
		c-1.564,0.781-3.475,0.16-4.275-1.398c-0.803-1.56-0.201-3.475,1.346-4.296c0.029-0.012,0.145-0.081,0.313-0.195
		c0.313-0.215,0.728-0.604,1.166-1.013c0.291-0.273,0.596-0.556,0.924-0.841c2.551-2.997,2.607-6.794,0.158-11.284l0,0
		c0,0-2.977-5.052-7.469-5.052c-0.98,0-2.016,0.238-3.076,0.712c-0.922,0.409-1.988,0.364-2.869-0.13
		c-0.883-0.496-1.479-1.381-1.609-2.385c-0.131-0.956-1.572-9.502-10.084-9.502c-0.066,0-0.145-0.001-0.211-0.008
		c-0.018,0.001-0.109-0.003-0.258-0.003c-3.35,0-11.16,1.128-11.275,11.552c-0.012,1.037-0.525,2.002-1.377,2.594
		c-0.846,0.59-1.934,0.734-2.908,0.383l0,0c-0.002,0-1.443-0.486-3.387-0.486c-3.641,0-6.51,1.649-8.525,4.901
		c-0.43,0.806-2.195,4.956,3.307,9.096c1.115,0.839,1.559,2.305,1.096,3.623c-0.463,1.317-1.713,2.178-3.123,2.133h-0.164
		c-2.578,0-7.441,0.673-9.313,3.195c-1.027,1.378-1.141,3.326-0.352,5.959c0.004,0.01,0.008,0.019,0.008,0.023
		c0,0.003,0,0.007,0,0.008C281.75,367.646,281.75,367.634,281.75,367.647z"/>
	<g>
		<path style="fill:#BCBEC0;" d="M355.599,368.053l-44.889,0.002c-0.117-0.001-0.234,0.007-0.352,0.023
			c-0.803,0.107-1.58,0.16-2.303,0.161h-0.004c-5.414,0-6.672-3.017-6.836-3.494c-0.002-0.013,0-0.002-0.002-0.012
			c0-0.002-0.002-0.005-0.002-0.007c-0.004-0.004-0.006-0.007-0.006-0.018c-0.648-2.16-0.557-3.757,0.283-4.885
			c1.537-2.069,5.523-2.62,7.639-2.62h0.133c1.158,0.036,2.182-0.673,2.564-1.752c0.377-1.08,0.014-2.28-0.9-2.971
			c-4.514-3.392-3.064-6.795-2.717-7.457c1.658-2.666,4.01-4.016,6.992-4.017c1.598,0,2.783,0.399,2.783,0.399
			c0.795,0.288,1.688,0.168,2.383-0.315c0.699-0.485,1.117-1.277,1.127-2.128c0.063-5.601,2.832-7.919,5.51-8.857
			c-1.307-2.593-3.859-5.442-8.775-5.442c-0.066,0-0.145-0.001-0.211-0.008c-0.018,0.001-0.109-0.003-0.258-0.003
			c-3.35,0-11.16,1.128-11.275,11.552c-0.012,1.037-0.525,2.002-1.377,2.594c-0.846,0.59-1.934,0.734-2.908,0.383
			c-0.002,0-1.443-0.486-3.387-0.486c-3.641,0-6.51,1.649-8.525,4.901c-0.43,0.806-2.195,4.956,3.307,9.096
			c1.115,0.839,1.559,2.305,1.096,3.623c-0.463,1.317-1.713,2.178-3.123,2.133h-0.164c-2.578,0-7.441,0.673-9.313,3.195
			c-1.027,1.378-1.141,3.326-0.352,5.959c0.004,0.01,0.008,0.019,0.008,0.023c0,0.003,0,0.007,0,0.008
			c0.004,0.012,0.004,0,0.004,0.013c0.205,0.585,1.74,4.263,8.342,4.264h0.004c0.881,0,1.826-0.066,2.811-0.197
			c0.141-0.019,0.283-0.029,0.424-0.029l54.752-0.003c1.992,0,4.758-1.018,6.73-2.476c0.461-0.345,0.822-0.748,1.141-1.174
			C355.834,368.037,355.712,368.052,355.599,368.053z"/>
	</g>
	<path style="fill:#BCBEC0;" d="M329.921,336.552c0,0-0.514,0.695-1.285,1.738c-0.17,0.266-0.375,0.529-0.555,0.828
		c-0.197,0.286-0.381,0.597-0.563,0.914c-0.205,0.309-0.332,0.66-0.527,0.984c-0.113,0.353-0.32,0.676-0.4,1.038l-0.176,0.524
		l-0.109,0.531c-0.1,0.353-0.113,0.706-0.148,1.057c-0.066,0.353-0.004,0.693-0.018,1.03c-0.018,0.338,0.041,0.654,0.072,0.956
		c0.057,0.297,0.039,0.602,0.109,0.846c0.061,0.245,0.098,0.478,0.135,0.664c0.061,0.381,0.09,0.618,0.09,0.618
		s-0.172-0.143-0.447-0.428c-0.137-0.143-0.311-0.321-0.488-0.537c-0.203-0.205-0.332-0.49-0.506-0.793
		c-0.168-0.306-0.375-0.636-0.469-1.036c-0.105-0.393-0.273-0.807-0.281-1.266c-0.039-0.45-0.088-0.927-0.002-1.403
		c0.033-0.238,0.047-0.485,0.103-0.722l0.209-0.699c0.129-0.473,0.387-0.886,0.592-1.311c0.26-0.386,0.496-0.786,0.801-1.106
		c0.285-0.334,0.584-0.631,0.887-0.881c0.293-0.272,0.615-0.466,0.895-0.66C328.996,336.699,329.921,336.552,329.921,336.552z"/>
	<path style="fill:#BCBEC0;" d="M339.029,355.16c0,0-0.867-0.003-2.166-0.005c-0.313,0.018-0.646,0.014-0.994,0.045
		c-0.346,0.012-0.707,0.048-1.07,0.091c-0.371,0.02-0.728,0.122-1.1,0.158c-0.35,0.116-0.74,0.141-1.078,0.29l-0.525,0.172
		l-0.494,0.225c-0.344,0.13-0.635,0.33-0.939,0.507c-0.322,0.155-0.563,0.406-0.838,0.598c-0.283,0.183-0.504,0.419-0.729,0.625
		c-0.207,0.219-0.459,0.385-0.615,0.59c-0.162,0.195-0.326,0.359-0.459,0.497c-0.266,0.281-0.443,0.44-0.443,0.44
		s0.018-0.223,0.084-0.615c0.033-0.193,0.07-0.437,0.141-0.707c0.043-0.284,0.197-0.559,0.338-0.88
		c0.146-0.316,0.293-0.678,0.559-0.989c0.254-0.32,0.486-0.7,0.85-0.979c0.342-0.3,0.693-0.62,1.131-0.832
		c0.215-0.114,0.418-0.251,0.645-0.345l0.684-0.246c0.459-0.177,0.941-0.215,1.41-0.301c0.463-0.016,0.926-0.066,1.361-0.009
		c0.439,0.03,0.857,0.095,1.24,0.191c0.389,0.075,0.734,0.221,1.061,0.33C338.361,354.504,339.029,355.16,339.029,355.16z"/>
</g>
<g>
	<path style="fill:#6F913C;" d="M69.769,367.658c0.201,0.585,1.734,4.263,8.336,4.264c0,0,0.002,0,0.006,0
		c0.879,0,1.826-0.066,2.812-0.197c0.139-0.019,0.285-0.028,0.422-0.029l54.752-0.002c1.992-0.001,4.76-1.02,6.729-2.478
		c2.609-1.931,2.766-5.415,1.76-8.014c-1.154-2.994-3.785-5.167-6.256-5.167c-0.68,0-1.363,0.161-2.035,0.482
		c-0.189,0.09-0.393,0.219-0.635,0.412c-1.131,1.23-2.262,2.079-3.029,2.585c-0.242,0.169-0.543,0.352-0.846,0.512
		c-0.02,0.012-0.043,0.023-0.063,0.033c-1.568,0.781-3.479,0.161-4.279-1.397c-0.799-1.56-0.197-3.475,1.35-4.297
		c0.023-0.011,0.143-0.08,0.313-0.193c0.313-0.216,0.727-0.604,1.164-1.015c0.291-0.272,0.592-0.556,0.922-0.84
		c2.557-2.998,2.609-6.794,0.158-11.284l0,0c-0.002,0-2.973-5.052-7.469-5.052c-0.98,0-2.018,0.238-3.072,0.713
		c-0.926,0.409-1.988,0.363-2.871-0.131c-0.881-0.497-1.48-1.38-1.607-2.385c-0.137-0.956-1.574-9.503-10.084-9.502
		c-0.066,0-0.146-0.001-0.213-0.007c-0.016,0-0.109-0.004-0.256-0.004c-3.354,0.001-11.166,1.128-11.277,11.552
		c-0.014,1.036-0.525,2.002-1.377,2.593c-0.848,0.592-1.93,0.735-2.91,0.383l0,0c0,0-1.441-0.486-3.389-0.486
		c-3.639,0-6.506,1.65-8.521,4.901c-0.428,0.807-2.197,4.957,3.307,9.098c1.115,0.838,1.557,2.304,1.096,3.621
		c-0.467,1.317-1.711,2.179-3.123,2.133l-0.164,0.001c-2.578,0-7.439,0.673-9.313,3.195c-1.027,1.378-1.141,3.325-0.35,5.959
		c0.004,0.01,0.004,0.018,0.01,0.022c0,0.004,0,0.007,0,0.009C69.769,367.657,69.765,367.647,69.769,367.658z"/>
	<g>
		<path style="fill:#BCBEC0;" d="M143.617,368.064l-44.895,0.003c-0.111-0.001-0.23,0.007-0.348,0.023
			c-0.803,0.106-1.58,0.16-2.301,0.16h-0.006c-5.414,0-6.668-3.015-6.838-3.493c-0.002-0.013,0-0.001-0.002-0.012
			c0-0.003,0-0.005,0-0.008c-0.006-0.003-0.006-0.006-0.01-0.017c-0.645-2.16-0.553-3.757,0.289-4.885
			c1.539-2.068,5.523-2.62,7.639-2.621h0.131c1.156,0.037,2.184-0.671,2.562-1.751s0.014-2.28-0.898-2.97
			c-4.514-3.393-3.063-6.796-2.713-7.458c1.652-2.666,4.006-4.016,6.99-4.016c1.596-0.001,2.779,0.397,2.779,0.397
			c0.797,0.289,1.691,0.169,2.385-0.315c0.695-0.484,1.117-1.277,1.129-2.126c0.059-5.603,2.828-7.919,5.506-8.857
			c-1.309-2.593-3.857-5.443-8.771-5.442c-0.066,0-0.146-0.001-0.213-0.007c-0.016,0-0.109-0.004-0.256-0.004
			c-3.354,0.001-11.166,1.128-11.277,11.552c-0.014,1.036-0.525,2.002-1.377,2.593c-0.848,0.592-1.93,0.735-2.91,0.383
			c0,0-1.441-0.486-3.389-0.486c-3.639,0-6.506,1.65-8.521,4.901c-0.428,0.807-2.197,4.957,3.307,9.098
			c1.115,0.838,1.557,2.304,1.096,3.621c-0.467,1.317-1.711,2.179-3.123,2.133l-0.164,0.001c-2.578,0-7.439,0.673-9.313,3.195
			c-1.027,1.378-1.141,3.325-0.35,5.959c0.004,0.01,0.004,0.018,0.01,0.022c0,0.004,0,0.007,0,0.009c0.004,0.011,0,0,0.004,0.012
			c0.201,0.585,1.734,4.263,8.336,4.264c0,0,0.002,0,0.006,0c0.879,0,1.826-0.066,2.812-0.197c0.139-0.019,0.285-0.028,0.422-0.029
			l54.752-0.002c1.992-0.001,4.76-1.02,6.729-2.478c0.465-0.345,0.822-0.746,1.141-1.174
			C143.849,368.05,143.73,368.064,143.617,368.064z"/>
	</g>
	<path style="fill:#BCBEC0;" d="M117.937,336.564c0,0-0.516,0.695-1.287,1.737c-0.17,0.267-0.373,0.53-0.553,0.828
		c-0.197,0.286-0.381,0.598-0.56,0.915c-0.205,0.309-0.336,0.661-0.525,0.985c-0.113,0.352-0.326,0.675-0.402,1.036l-0.176,0.525
		l-0.111,0.532c-0.1,0.353-0.109,0.706-0.148,1.058c-0.066,0.352-0.006,0.693-0.016,1.029c-0.021,0.338,0.039,0.654,0.072,0.956
		c0.053,0.297,0.033,0.602,0.109,0.845c0.061,0.246,0.098,0.478,0.133,0.664c0.061,0.381,0.09,0.62,0.09,0.62
		s-0.172-0.144-0.449-0.43c-0.135-0.143-0.309-0.32-0.484-0.536c-0.203-0.206-0.336-0.491-0.506-0.794
		c-0.17-0.304-0.375-0.635-0.471-1.035c-0.104-0.392-0.272-0.808-0.281-1.266c-0.041-0.451-0.09-0.928,0-1.404
		c0.033-0.238,0.043-0.483,0.104-0.721l0.209-0.699c0.127-0.474,0.385-0.887,0.588-1.311c0.264-0.386,0.5-0.787,0.803-1.105
		c0.283-0.334,0.582-0.632,0.891-0.883c0.287-0.271,0.609-0.465,0.893-0.658C117.011,336.711,117.937,336.564,117.937,336.564z"/>
	<path style="fill:#BCBEC0;" d="M127.041,355.172c0,0-0.861-0.003-2.16-0.005c-0.314,0.02-0.646,0.014-0.996,0.046
		c-0.35,0.011-0.707,0.046-1.07,0.09c-0.367,0.019-0.729,0.121-1.1,0.158c-0.352,0.117-0.74,0.141-1.076,0.29l-0.525,0.172
		l-0.496,0.225c-0.344,0.13-0.635,0.33-0.938,0.507c-0.322,0.155-0.561,0.406-0.84,0.597c-0.285,0.184-0.5,0.419-0.728,0.626
		c-0.205,0.219-0.461,0.385-0.615,0.591c-0.16,0.193-0.324,0.357-0.457,0.497c-0.271,0.28-0.445,0.439-0.445,0.439
		s0.016-0.223,0.082-0.616c0.037-0.192,0.074-0.435,0.143-0.707c0.045-0.283,0.197-0.559,0.34-0.879
		c0.146-0.316,0.289-0.678,0.559-0.99c0.25-0.319,0.482-0.698,0.846-0.979c0.342-0.299,0.699-0.621,1.135-0.832
		c0.209-0.114,0.418-0.251,0.641-0.345l0.686-0.246c0.459-0.176,0.943-0.215,1.406-0.301c0.467-0.017,0.926-0.066,1.369-0.008
		c0.436,0.028,0.85,0.093,1.236,0.191c0.391,0.075,0.736,0.22,1.057,0.329C126.375,354.517,127.041,355.172,127.041,355.172z"/>
</g>
</svg>
