<?xml version="1.0" encoding="UTF-8"?>
<svg id="Capa_2" data-name="Capa 2" xmlns="http://www.w3.org/2000/svg" xmlns:xlink="http://www.w3.org/1999/xlink" viewBox="0 0 463.26 121.53">
  <defs>
    <style>
      .cls-1 {
        fill: url(#Degradado_sin_nombre_3);
      }

      .cls-1, .cls-2, .cls-3, .cls-4 {
        stroke-width: 0px;
      }

      .cls-2 {
        fill: none;
      }

      .cls-3 {
        fill: #70706f;
      }

      .cls-5 {
        clip-path: url(#clippath);
      }

      .cls-4 {
        fill: #02aec2;
      }
    </style>
    <clipPath id="clippath">
      <path class="cls-2" d="M131.33,115.25c.09.04.19.09.28.15.32.19,1.21,1.47,1.59,2.04.03.04,1.36,1.25,2.11,1.58.92.4,2.83.75,3.32.67h.02s0,0,0,0l.16-.02h0c.59-.06,1.15.03,1.76.33.14.07.4.32.67.64l-.04.02.56.89.17-.09c.3-.17.58-.35.84-.54l-.12-.13c-.19-.2-.36-.42-.54-.64-.26-.31-.52-.63-.87-.85-.84-.55-1.82-.75-2.7-.62-.01,0-1.53-.04-2.35-.38-.91-.38-1.89-1.16-2.56-1.97-.42-.51-.73-1.15-1.29-1.58-.31-.24-.65-.42-1-.55v1.07ZM140.31,112.16l1.04-1.31c.59.39,1.12.78,1.55,1.13l-1.12,1.46c-.43-.45-.93-.88-1.47-1.28M138.06,110.75l1.01-1.26c.54.29,1.06.59,1.55.9l-1.02,1.28c-.49-.32-1.01-.63-1.54-.91M134.88,109.44l1.08-1.35c.77.27,1.56.62,2.33,1l-1.02,1.27c-.78-.36-1.59-.68-2.39-.93M133.19,109c-.38-.08-.75-.14-1.13-.19l1.06-1.38c.19.02.37.04.55.07.45.06.92.17,1.4.31l-1.1,1.38c-.26-.07-.53-.13-.79-.18M131.4,108.04l-.07.68v1.12l.05-.09c.5.06.99.13,1.48.23,3.3.66,6.35,2.23,8.26,4.3.08.08.36.32.36.32.72.64,1.83,1.2,3,1.48-.35,1.31-.68,1.86-1.3,2.45-.23-.27-.47-.54-.77-.74-.84-.55-1.82-.75-2.7-.62-.01,0-1.53-.04-2.35-.38-.91-.38-1.89-1.16-2.56-1.97-.42-.51-.73-1.15-1.29-1.58-.66-.5-1.43-.76-2.19-.8v1.01c.49.02.96.16,1.46.45.32.19,1.21,1.47,1.59,2.04.03.04,1.36,1.25,2.11,1.58.92.4,2.83.75,3.32.67h.02s.15-.02.15-.02h0c.59-.06,1.15.03,1.76.34.14.07.4.32.67.64l-.04.02.56.89.16-.09h.02s.03.02.03.02l.15-.13c.23-.14.44-.28.65-.43l-.1-.1c.86-.91,1.45-1.94,1.72-3.05l.07-.31c.03-.13.09-.71.09-.71-.19-.01-.38-.03-.57-.06l.53-.68.44-.57.52-.63-2.53-.48,1.25,1.33-.7.91c-.68-.21-1.44-.64-2.01-1.01l1.06-1.37.66-.86c-.13-.08-.71-.56-.84-.67-2.17-1.75-6.52-4.23-9.69-4.67h-.02c-.41-.06-1.96-.2-2.37-.23l-.05,1.78ZM139.2,104.21c2.47.33,4.47,1.8,5.49,2.68l.73-1.4c-1.15-.98-2.57-2.35-5.44-2.73l-.78,1.45ZM140.69,101.46c2.47.33,4.46,1.79,5.48,2.67l.74-1.38c-1.15-.98-2.62-2.25-5.49-2.63l-.73,1.34ZM131.38,100.36l.21.02c1.95.58,3.66,1.7,4.46,2.39l.72-1.35c-.92-.79-3.09-2.02-5.35-2.64-.11.35-.05,1.36-.05,1.58M142.13,98.93c2.47.33,4.42,1.71,5.45,2.58l.74-1.36c-1.15-.98-2.61-2.28-5.47-2.66l-.71,1.44ZM133.75,96.01v.07c-.78-.26-1.58-.46-2.38-.56l-.04.86v.74c2.45.33,5.27,1.84,6.28,2.69l.73-1.35c-.65-.55-1.9-1.3-3.37-1.92l.04-.04c.15-.14.57-.74.38-.87-.19-.13-.57.03-.85.22-.04-.3-.14-.61-.33-.67-.01,0-.02,0-.03,0-.21,0-.41.64-.43.84M133.06,92.19c-.16-.31-.46-.68-.71-.65-.23.03-.12.75-.05.95l.05.11c-.34-.06-.68-.11-1.01-.16v1.56c2.91.47,5.68,1.49,7.97,2.82l.81-1.49c-.1-.06-.14-.08-.24-.14-.28-.16-.58-.31-.87-.45.15,0,.28-.11.4-.23.15-.14.58-.74.39-.87-.19-.13-.58.03-.86.22-.04-.29-.14-.59-.32-.65-.22-.07-.44.62-.47.83-.01.11-.02.21,0,.31-1.43-.63-2.97-1.12-4.55-1.48.11-.08.17-.22.23-.36.07-.2.19-.92-.05-.95-.01,0-.02,0-.03,0-.24,0-.52.36-.67.65M184.7,81.81c-.17.05-.32.16-.41.31-.09.15-.11.34-.07.51.05.17.16.32.31.41.1.06.22.09.34.09l.17-.02c.17-.05.32-.16.41-.31.09-.15.11-.34.07-.51-.05-.17-.16-.32-.31-.41-.1-.06-.22-.09-.34-.09-.06,0-.11,0-.17.02M141.22,107.09c-.73-.39-3.09-1.32-4.15-1.75l5.76-10.23c.84.3,2.61.92,3.9,1.5.44.2,1.02.55,1.59.93.77.52,1.53,1.09,1.92,1.41l-5.43,10.41c-.89-.61-2.86-1.9-3.58-2.28M143.09,86.12l.04-.02.1.08-.15-.06ZM131.33,80.45c.33,0,.67.02,1,.04.46.02.92.06,1.38.11.26.03.52.06.78.09l.17.02c-.18-.02.02,0,.07,0,.14.02.28.04.43.06,1.18.19,2.34.44,3.49.78.63.19,1.26.4,1.87.63.16.06.31.12.47.18l.19.08.04.02.18.08c.32.14.63.28.94.44.72.36,1.43.75,2.11,1.18.74.47,1.4.95,2.03,1.48l.02.02.02.02c-.53.45-1.02.92-1.47,1.41-.56-.31-1.14-.59-1.73-.86.19.06.37-.06.52-.21.15-.14.58-.74.38-.87-.19-.13-.58.03-.86.22-.04-.29-.14-.59-.32-.65-.23-.07-.45.62-.47.83-.02.13-.02.27.02.38-1.52-.63-3.12-1.14-4.78-1.51.07-.06.14-.13.2-.22.12-.17.43-.83.22-.93-.21-.09-.56.13-.8.36-.09-.28-.25-.57-.44-.6-.23-.03-.32.69-.31.9,0,.09.02.18.04.26-1.06-.19-2.14-.33-3.23-.42.04-.07.08-.15.11-.23.07-.2.19-.92-.05-.95-.25-.04-.55.34-.71.65-.16-.31-.46-.68-.71-.65-.23.03-.12.75-.05.95l.07.16h-.13c-.16-.01-.5-.02-.66-.02l-.03,1.88h.17c.15,0,.31,0,.46.01,4.33.14,8.45,1.23,11.85,3.02-.39.55-.73,1.11-1.03,1.69-.59-.31-1.2-.59-1.83-.85l.17-.14c.15-.14.58-.74.39-.87-.19-.13-.58.03-.86.22-.04-.29-.14-.59-.32-.65-.22-.07-.44.62-.47.83,0,.06-.01.13-.01.19-1-.36-2.05-.65-3.11-.88l.04-.05c.12-.17.43-.83.22-.93-.21-.09-.56.13-.8.36-.09-.29-.25-.57-.44-.6-.23-.03-.32.69-.31.9v.07c-.7-.11-1.41-.2-2.13-.26.04-.06.06-.13.09-.2.07-.2.19-.92-.05-.95-.24-.04-.55.34-.71.65-.16-.31-.46-.68-.7-.65-.23.03-.12.76-.05.95l.05.12c-.16,0-.42,0-.54,0l-.03,1.66c.13,0,.43,0,.57,0,6.26.2,11.99,2.73,15.24,6.55-1.9-.85-4.27-1.66-4.37-1.7l-.6-.21-6.06,10.69c-1.04-.84-2.52-1.7-4.73-2.13-.04,0-.06.06-.07.16v.79c0,.19.02.35.03.41,1.81.42,3.2,1.15,4.34,2.31h0s.02.01.02.01h0s0,0,0,0l.76.3s3.27,1.28,4.23,1.79c.95.51,3.63,2.39,3.66,2.41l.69.49,6.49-12.19-.44-.39s-.03-.05-.53-.44l-.16-.37c-.83-1.71-2.04-3.27-3.59-4.65.64-1,1.43-1.93,2.36-2.78v-2.03c-1.51,1.19-2.64,2.36-3.65,3.76-.39-.29-.8-.57-1.23-.84.05-.05.09-.12.14-.22.12-.28.65-1.25.83-1.51.37-.51.79-1,1.25-1.47.47-.48.98-.94,1.52-1.37,1.5.78,3.11,1.31,4.83,1.25.97-.03,1.92-.21,2.86-.44.64-.15,1.27-.37,1.92-.51.07-.02.15-.03.22-.04h.06s.1-.02.1-.02c.16-.02.32-.03.48-.03.36,0,.57.02.88.09,1.26.27,2.21,1.18,3.33,1.87,1.11.69,2.37,1.24,3.66,1.45.67.11,1.35.16,2.03.09.71-.08,1.39-.25,2.07-.46.58-.18,1.17-.33,1.75-.5.47-.14.93-.29,1.4-.42.26-.06.51-.11.77-.16h0s0,0,0,0h.09s.18-.03.18-.03c.14,0,.28-.01.42,0,.07,0,.14.01.21.01h.05c.13.03.26.07.39.11l.06.02h.02s.15.09.15.09c.09.05.17.1.25.16.07.04.14.09.21.14.76-.02,1.51-.07,2.25-.13-.44-.27-.87-.55-1.3-.84-.41-.27-.81-.55-1.27-.72-.53-.2-1.13-.22-1.68-.16-1.03.12-1.98.49-2.98.74-.66.17-1.3.4-1.96.58-.68.19-1.18.27-1.87.26-.15,0-.31,0-.46-.02-.07,0-.14-.01-.21-.02h-.08s-.06-.02-.06-.02c-.32-.05-.63-.12-.94-.21-.65-.19-1.13-.38-1.72-.69-.57-.3-1.11-.65-1.63-1.02-.53-.38-1.07-.77-1.67-1.04-.66-.3-1.36-.47-2.08-.51-.71-.03-1.42.1-2.1.29-.57.16-1.14.32-1.72.45-.23.05-.47.1-.7.14-.11.02-.22.04-.33.06l-.15.02h-.01s-.06,0-.06,0c-.44.05-.88.08-1.32.06-.23,0-.45-.03-.68-.05h-.02s0,0,0,0l-.15-.02c-.12-.02-.24-.04-.36-.07-.5-.11-.99-.27-1.47-.46l-.1-.04-.18-.08c-.14-.06-.28-.13-.42-.2-.28-.14-.55-.28-.82-.44-.18-.11-.37-.22-.55-.33h-.02c-.11-.08-.21-.14-.31-.21-2.29-1.87-4.92-3.26-7.73-4.16-2.22-.71-4.54-1.12-6.86-1.27-.46-.03-.91-.05-1.37-.06v1.33ZM150.09,78.08c0,.4.32.72.72.72s.72-.32.72-.72-.32-.72-.72-.72-.72.32-.72.72M163.89,80.35l.91.49,1.97-3.62-.9-.49-1.97,3.62ZM147.98,77.16c0,.4.32.72.72.72s.72-.32.72-.72-.32-.72-.72-.72-.72.32-.72.72M161.63,79.11l.91.49,1.97-3.62-.9-.49-1.97,3.62ZM159.37,77.88l.9.49,1.97-3.62-.91-.49-1.97,3.62ZM185.03,83.53c-.63-.48-1.29-1.27-1.79-2.16.59-.62,1.53-1.21,2.86-1,.09.49.18,1.22.2,1.38v.02c.15,1.03-.09,2.03-.27,2.15-.03.01-.06.02-.1.02-.19,0-.5-.12-.89-.41M183.63,78.76c.14-.11.32-.17.4-.19.07-.02.25-.05.42-.03.02.17.04.5-.04.94-.09.03-.19.07-.28.11-.3-.37-.44-.67-.5-.83M182.36,77.78v-.02c.01-.19.11-.63.16-.86l.03-.11v-.04c.29-.97.8-1.79,1.51-2.37.59-.49,1.38-.8,2.41-.95,1.4-.2,3.29,1.73,3.89,2.48.11.16.3.24.49.22.59-.07.95.08,1.17.27h-.02c-.36,0-.79.08-1.26.3-.47.23-.81.6-.99,1.08-.04-.45.19-.81.2-.83.1-.15.11-.34.05-.5-.21-.5-.62-.91-1.14-1.14-.56-.25-1.2-.28-1.87-.08-.48.14-.84.44-1.08.88-.39.73-.42,1.83-.09,3.15-.1,0-.2,0-.3,0,.04-.5,0-.93-.06-1.13-.07-.27-.22-.46-.45-.55-.56-.23-1.18-.07-1.25-.05-.07.02-.69.19-1.07.66-.39.49.05,1.12.19,1.33.05.07.12.19.19.32.05.09.1.17.15.26-.15.1-.3.19-.43.29-.28-.71-.53-1.65-.43-2.61M186.34,72.37c-1.11.08-2.14.49-2.98,1.19-.85.7-1.48,1.68-1.82,2.83h0c-.09.25-.23.87-.25,1.29-.11,1.05.09,2.17.59,3.36l.27.58c.58,1.12,1.41,2.16,2.23,2.77.63.48,1.14.62,1.53.62.2,0,.37-.04.5-.09.81-.32,1.15-1.5.94-3.22h0c-.03-.4-.25-1.79-.4-2.29-.13-.43-.22-.84-.27-1.23,0-.02-.22-1.66.6-1.92.76-.22,1.33.03,1.6.41-.07.16-.15.37-.19.62-.09.51-.06,1.26.59,1.97.22.24.56.32.87.2.31-.12.5-.41.49-.74,0-.52.17-.87.54-1.05.51-.25.92-.21,1.18-.14.3.08.62-.02.81-.26.18-.23.23-.53.12-.8-.18-.43-.45-.78-.81-1.02-.41-.28-.91-.42-1.49-.4-1.17-1.36-2.66-2.42-3.65-2.59-.05-.01-.43-.09-.79-.09-.08,0-.15,0-.22.01M176.61,70.67l-.32.63h0s0,.01,0,.01l.02.03h0s.04.05.04.05h0s.06.05.06.05h.01s.07.07.07.07h.02s.09.08.09.08h0s.1.08.1.08l.02.02.12.07.03.02.14.08h0s.15.08.15.08l.03.02.16.07h.03s.18.08.18.08h0c.06.02.13.04.19.05h.04c.06.02.13.04.2.05h.04c.07.02.15.03.22.03h0c.08,0,.15,0,.23,0h.05c.06,0,.13,0,.2,0h0c.07,0,.14-.01.2-.02h.06s.16-.03.16-.03h.07c.07-.03.14-.04.22-.06h0v-.11s.08-4.2.08-4.2c-.23,0-.46-.03-.68-.09-.22-.06-.43-.14-.62-.23l-1.64,3.2ZM180.52,67.65l1.32,4.1s1.8.11,2.82-1.68l-2.99-3.1c-.33.31-.72.55-1.15.69M172.68,67.04s-.11,1.8,1.68,2.82l3.1-2.98c-.32-.33-.56-.72-.7-1.15l-4.08,1.31ZM182.51,65.53c-.06.23-.14.45-.25.65l3.82,1.96s1.35-1.2.81-3.19l-4.29-.08c0,.22-.03.44-.09.66M177.45,64.8c0,1.19.97,2.16,2.16,2.16s2.16-.97,2.16-2.16-.97-2.16-2.16-2.16-2.16.97-2.16,2.16M195.88,61.51c-.24,0-.47.15-.59.37-.08.15-.14.29-.19.44-.2.52-.41,1.05-1.6,1.62-1.02.5-1.62,1.3-1.75,2.28-.41-.23-.83-.39-1.2-.47-.7-.15-1.47.02-2.07.47-.42.31-.66.7-.69,1.08-.04.53.35,1.05.88,1.52-.6.11-1.18.21-1.74.28-.31.53-.68,1.03-1.1,1.47,1.46-.11,3.02-.36,4.66-.75.27-.06.47-.29.51-.56.04-.27-.09-.54-.33-.69-.64-.38-1.3-.9-1.49-1.18.16-.17.61-.43,1.07-.33.63.14,1.48.67,1.75,1.1l.03.05c.36.57.81.4.94.33.02-.01.55-.28.31-.91-.67-1.76.44-2.3.81-2.48.87-.42,1.38-.88,1.71-1.3-.08.92-.94,1.63-1.07,1.73-.29.23-.35.65-.12.94.22.3.65.36.95.14.07-.05.74-.52,1.4-.09.36.27.67.19.82.12.85-.4,1.37-1.12,1.72-1.81.13.53.19,1.15.06,1.63-.11.37-.29.47-.44.52-.09.03-.54.18-.67.61-.07.24-.01.49.15.68.9,1.03,2.14,2.92,3.23,4.59,1.5,2.29,2.06,3.11,2.49,3.35.15.09.34.13.64.19.08.02.2.04.29.07.14.46-.1,1.3-.38,1.9l-.08.02c-.15.04-.29.13-.38.25-.35.47-.94,1.22-1.16,1.4-.44.37-.97.16-1.8-.24-.33-.16-.64-.31-.94-.38-1.37-.34-3.05-.62-5.07-.2-.93.19-1.88.53-2.81,1-1.11.56-1.72,3.08-1.94,4.14-.07.37.17.73.53.8h.13c.32.01.6-.21.67-.53.3-1.49.88-3.01,1.21-3.19.83-.42,1.66-.71,2.48-.88,1.76-.36,3.25-.11,4.47.19.17.04.42.16.68.29.85.41,2.12,1.02,3.27.05.34-.28.93-1.05,1.23-1.43l.15-.04c.18-.05.34-.17.43-.33.13-.24,1.25-2.37.39-3.69-.21-.32-.59-.4-1.08-.51-.08-.02-.19-.04-.26-.06-.32-.31-1.26-1.74-2.02-2.9-.93-1.42-1.97-3.01-2.85-4.13.64-.48.95-1.37.85-2.54,0-.03-.27-2.69-1.41-2.83-.31-.04-.7.12-.85.57v.03c-.25.68-.57,1.57-1.23,2.05-.21-.11-.42-.18-.62-.22.44-.91.55-2.06-.32-3.2h0s0,0,0,0h0c-.19-.31-.44-.38-.62-.38,0,0-.02,0-.02,0M172.33,64.68l4.28.08c0-.23.03-.47.09-.7.06-.22.14-.42.23-.62l-3.8-1.95s-1.35,1.2-.81,3.19M175.34,84.29l1.18-4.64,1.39.35-.32,4.66c-.73-.24-1.49-.37-2.25-.38M173.87,78.98l1.39.35-1.29,5.1c-.54.11-1.07.27-1.62.4-.45.11-.9.26-1.34.39l2.86-6.25ZM157.13,77.85l2.96-5.43,8.84,4.79-2.96,5.43-8.84-4.79ZM162.06,72.32l4.17-.6,1.38,3.6-5.55-3ZM148.79,73.12c-.59-.51-1.25-1-1.94-1.45l.07-.12,3.65-1.29-1.06,3.28c-.44-.24-.71-.42-.71-.42M151.95,70.19l3.12,1.04-4.19,2.28,1.08-3.32ZM153.31,69.27l3.63-1.29-.73,2.26-2.91-.97ZM158.38,67.75l2.02.58-2.67,1.45.65-2.03ZM133.31,65.19c.28,0,.57,0,.85,0,4.61.05,9,1.35,12.35,3.62l-1.01,1.86-.21.08c-3.13-1.69-6.87-2.78-10.28-3.04-1.01-.08-2.02-.09-3.02-.06l1.33-2.45ZM160.07,66.88l8.61-3.05-6.64,3.61-1.96-.56ZM144.21,63.29l-1.05,1.93c-2.74-1.06-5.8-1.65-8.95-1.69h-.04c-.63,0-1.25,0-1.88.05l-.94,1.74-.02.03v3.98c1.11-.06,2.25-.06,3.37.03,5.09.39,9.98,2.29,13.25,5.24.13.12.6.45.6.45,1.21.89,2.98,1.55,4.8,1.76-.35,2.89-1.04,4.01-2.74,5.81-.24-.1-.47-.2-.75-.34-.59-.29-1.17-.63-1.72-.99-2.29-1.87-4.92-3.26-7.73-4.16-2.22-.71-4.54-1.12-6.86-1.27-.74-.05-1.48-.07-2.22-.06v1.33c.62,0,1.24,0,1.85.04.46.02.92.06,1.38.11.26.03.52.06.78.09l.17.02c-.18-.02.02,0,.07.01.14.02.28.04.43.06,1.18.19,2.34.44,3.49.78.63.19,1.26.4,1.87.63.16.06.31.12.47.18l.19.08h.04s.18.09.18.09c.32.14.63.28.94.44.72.36,1.43.75,2.11,1.18.74.47,1.4.95,2.03,1.48l.02.02.11.09c1.71,1.1,3.59,2,5.66,2.1.83.04,1.67-.06,2.48-.22.43-.08.87-.18,1.29-.29.59-.15,1.17-.36,1.77-.47,1.02-.19,2.1.05,3.02.61.48.29.92.63,1.38.95.48.33.98.63,1.5.88,1.08.53,2.22.9,3.42,1,1.03.09,2.03-.09,3.01-.37.2-.06.4-.12.6-.18.51-.16,1.03-.29,1.55-.44.11-.03.22-.06.32-.09l.14-.04c.23-.06.47-.12.71-.17.08-.02.17-.03.25-.04h.09c.07-.02.15-.03.22-.03h.13c.21-.02.42-.02.63-.01.14,0,.28.02.43.04h.08c.08.02.16.04.24.05.35.07.69.17,1.03.29l.09.04c.22.08.44.17.66.26.11.04.21.09.32.13l.12.05.11.05.06.03c.39.17.78.33,1.17.49.84.33,1.72.6,2.6.77.76.14,1.48.17,2.24-.01.37-.09.74-.2,1.11-.3.23-.06.46-.13.69-.19.08-.02.17-.03.25-.06h.16c.09-.01.18,0,.28,0h.09s.11.02.11.02c.22.04.43.11.63.18.57-.15,1.13-.31,1.68-.47-.57-.55-1.35-.9-2.12-1.02-.43-.06-.86-.07-1.29.02-.46.1-.92.24-1.37.37-.31.09-.62.17-.94.23h-.11c-.08.02-.16.02-.24.02-.17,0-.33-.02-.5-.03.1,0-.15-.02-.19-.03-.1-.02-.21-.04-.31-.06-.26-.06-.53-.12-.79-.19-.43-.12-.86-.25-1.28-.41-.21-.08-.42-.16-.63-.25l-.13-.06-.04-.02-.04-.02c-.11-.05-.22-.09-.33-.14-.2-.09-.4-.17-.6-.25l.8-12.24c-.37.1-.74.15-1.1.15-.07,0-.13,0-.2,0l-.35,5.64-1.16-.29,1.36-5.36c-.48-.04-.9-.17-1.25-.32l-1.36,5.36-1.16-.29,2.37-5.13c-.57-.27-.94-.61-1.07-.75l-6.01,13.06c-.12.24-.21.43-.33.67h0c-.13.02-.25.03-.42.04-.26.02-.52.02-.78,0-.12,0-.22-.01-.3-.02-.15-.02-.27-.04-.44-.07-.57-.11-1.12-.28-1.65-.49l-.05-.02-.05-.03-.13-.06c-.13-.06-.26-.12-.39-.19-.26-.13-.51-.27-.76-.42-.5-.3-.97-.65-1.44-.98-1.02-.71-2.12-1.2-3.37-1.25-1.2-.05-2.31.4-3.46.67-.41.09-.81.18-1.23.25-.09.01-.19.03-.28.04h0s-.02,0-.02,0l-.15.02c-.2.02-.4.04-.6.05-.43.02-.87,0-1.3-.04h-.02s0,0,0,0c-.07-.01-.14-.02-.21-.03h0c1.55-1.89,2.47-4.01,2.71-6.23l.04-.51c.01-.22.02-.43.02-.65h-.02v-.52c-.39.03-.78.03-1.18,0-.7-.05-1.5-.3-2.26-.61l17.65-9.6-1.49,2.83c-.14.25-.04.56.21.7l.23.12c.62.34.86,1.12.51,1.75-.34.63-1.12.86-1.75.51-.63-.34-.86-1.12-.51-1.75l-.9-.49c-.34.62-.37,1.37-.09,2.02l-5.02.79-.35-.19c-.25-.14-.56-.04-.7.21h0s-3.45,6.33-3.45,6.33c-.14.25-.04.56.21.7h0s9.75,5.28,9.75,5.28c.25.14.56.04.7-.21l3.45-6.33c.14-.25.04-.56-.21-.7l-.79-.43-1.4-4.06c1.28-.04,2.28-1.1,2.24-2.38-.02-.73-.39-1.41-.99-1.83l2.16-3.87.03-.02-.6-2.18-22.7,8.05.03-.06.83-1.53c-.26-.13-.41-.21-.41-.21-.32-.24-.65-.47-.98-.69-.99-.65-2.05-1.23-3.18-1.72l.89-1.63.8-1.46.95-1.61-5.62-.36,3.09,2.73ZM203.81,62.98c1.05-.99,2.49-1.56,4.03-1.56,3.11,0,5.63,2.31,5.63,5.16,0,.49-.08.98-.23,1.45-.99-.87-2.07-1.35-2.99-1.31-.73-1.17-2.59-2.12-3.92-1.98-.43-.4-1.39-1.23-2.53-1.75M202.52,62.58h-.04s-.01.06-.01.06c-.14.17-.28.35-.41.53l.24.59c1.66.24,3.38,2.01,3.4,2.03l.25.26.35-.1c.33-.1.82,0,1.31.2l-1.85,3.41c-.24-.01-.48-.02-.72-.03-.15,0-.29,0-.44,0-.34,0-.69,0-1.03.01-.4-.01-.8-.02-1.2-.01l1.26,1.66c.68,0,1.78.01,2.33.04h.17c.62.05,1.23.12,1.83.2,1.48.21,2.91.55,4.28,1,.32-.52.67-.96,1-1.41-1.94-.69-4.01-1.15-6.16-1.36l1.58-2.91c.31.25.56.52.66.78l.17.59.58-.17c.57-.17,1.62.22,2.63,1.22h0s.04.04.04.04c.15.15.31.32.46.51l.52.12c.63-.98.96-2.11.96-3.26,0-3.51-3.07-6.36-6.84-6.36-2.09,0-4.03.87-5.32,2.37M181.77,62.74c.31.33.55.73.69,1.17l4.08-1.31s.11-1.8-1.68-2.82l-3.08,2.97ZM174.56,59.57l2.96,3.08c.33-.32.73-.56,1.17-.7l-1.3-4.06s-.02,0-.06,0c-.32,0-1.85.09-2.77,1.68M179.75,57.54l-.08,4.27c.23,0,.45.03.67.09.23.06.44.14.64.25l1.95-3.8s-.83-.93-2.26-.93c-.29,0-.6.04-.93.13M131.33,58.92v1.69c4.29-2.37,9.62-2.52,13.81-1.42,4.39.99,8.97,3.38,11.39,6.14l1.51-.53c-2.54-3.21-7.63-5.96-12.57-7.08-1.64-.43-3.42-.65-5.24-.65-3.02,0-6.15.6-8.9,1.84M198.38,53.3c-.21.1-.36.25-.48.4-.53.64-.93,1.4-1.16,2.19l.08.06c.11.08.21.16.32.23.21.14.43.27.66.4.02-.1.03-.2.06-.3.19-.66.52-1.29.96-1.82l.08-.09h.17s2.74.14,2.74.14h.16s.07.11.07.11c.38.57.65,1.23.77,1.9.07.39.08.75.02,1.09l-.05.3c.42-.05.85-.12,1.24-.21v-.15c.06-.49,0-.94-.05-1.23-.15-.84-.48-1.65-.96-2.35-.11-.16-.24-.33-.44-.45-.26-.16-.53-.17-.71-.18l-2.74-.14c-.05,0-.11,0-.17,0-.16,0-.36.02-.56.11M197.37,49.48c-.1.07-.15.18-.16.29,0,.12.04.24.13.33l.17.17c.18.19.37.38.55.56l.06.09c-.11.1-.17.23-.17.37,0,.15.06.29.17.4.11.1.24.16.39.19.13.33.27.67.4,1,.03.07.09.15.19.16.12,0,.23.01.36.02l.37.02-.07-.27-.03-.11c-.13-.33-.27-.67-.4-1.01.13-.12.18-.29.14-.46-.05-.22-.21-.38-.42-.43-.07-.02-.1-.04-.14-.15-.03-.1-.06-.2-.14-.27-.28-.3-.58-.6-.85-.87-.08-.08-.18-.11-.28-.11-.09,0-.18.03-.26.09M139.76,50.64c-.21-.27-.3-.61-.26-.95.09-.64.63-1.12,1.28-1.12h.17c.34.06.64.23.85.51.21.27.3.61.26.95-.05.34-.22.65-.5.86-.27.21-.61.3-.95.25h0c-.34-.05-.65-.22-.86-.5M138.72,47.17c-.71.55-1.17,1.34-1.29,2.23-.25,1.85,1.06,3.56,2.92,3.81.15.02.3.03.44.03,1.69,0,3.13-1.27,3.36-2.95h0c.12-.9-.12-1.79-.67-2.51-.55-.72-1.35-1.18-2.24-1.3-.15-.02-.3-.03-.45-.03-.74,0-1.46.25-2.06.71M179.79,44.52h1.33v-1.33h-1.33v1.33ZM194.06,44.52h1.33v-1.33h-1.33v1.33ZM179.79,42.29h1.33v-1.33h-1.33v1.33ZM194.06,42.29h1.33v-1.33h-1.33v1.33ZM213.45,31.22l-.03.03c-2.98,3.53-4.19,7.02-3.58,10.39.96,5.33,6.12,8.34,6.47,8.54.1.06.64.38,1.43.74-.42-.68-.75-1.42-.97-2.21-1.06-.67-4.72-3.28-5.46-7.33-.49-2.69.41-5.52,2.67-8.44.02-.21.03-.42.03-.63,0-.51-.06-1-.17-1.48-.24.23-.38.38-.4.4M209.08,28.28c0,.13-.01.26-.02.4-.02.32-.05.67.03,1.04-1.14-.53-2.19-.76-3.3-.76-.25,0-.48.16-.57.4-.09.24-.02.5.16.67,1.05.94,1.9,1.8,2.09,2.95-.79-.44-1.61-.82-2.45-1.14-1.97-.75-3.73-.17-5.35.57-.22.1-.36.32-.36.56s.15.46.37.56c.22.09.42.12.56.14.91.13,1.8.27,2.61.65.33.16.5.3.58.49.38.84.97,1.55,1.86,2.21-.24.15-.46.34-.64.6-.22.32-.48.42-1.01.39-.48-.12-.72.16-.81.29-.1.16-.23.48.04.89h0c.44.74,1.12,1.1,1.97,1.04-.3.14-.6.27-.91.35-.98.27-2.11.64-3.03,1.52-.18.18-.45.28-.78.31h-.05c-.63-.07-.85.28-.93.49-.18.53.17.92.36,1.12.24.26.54.41.9.44.38.04.73-.02,1.02-.08,1.08-.2,2.07-.21,3.01,0,.22.05.44.08.66.09-.09.18-.17.37-.23.57-.16.54-.37.8-.74.92-.45.14-.55.47-.57.6-.02.14-.03.49.36.78.57.42,1.15.16,1.43.04.43-.19.8-.46,1.15-.71.09-.06.17-.13.26-.19l.06-.05.17-.12c.24-.01.46,0,.69.01-.44.62-.94,1.21-1.52,1.79-.19.19-.38.37-.59.56-.45.41-.91.84-1.3,1.35-.64.82-.96,1.74-.95,2.73,0,.18.08.35.22.47.14.11.32.16.5.13.28-.05.47-.18.59-.27l.11-.07c.67-.45,1.31-.88,2.02-1.14.72-.27,1.48-.56,2.22-.92.08-.04.15-.07.23-.11-.29.62-.43,1.32-.29,2.16.03.21.17.38.37.46.19.08.42.06.59-.06.97-.68,1.85-1.21,2.79-1.54-.53.88-1.02,1.82-1.15,2.94-.17,1.41.71,4.02,1.38,4.6.18.15.42.19.64.1.21-.09.36-.3.37-.53.03-.63.09-1.24.18-1.86.14-.96.56-1.52,1.38-1.83.55-.2,1.12-.44,1.6-.89l.16-.15c.23-.21.5-.46.74-.71.13-.13.24-.23.33-.33-.06-.49-.18-.97-.34-1.42-.12.13-.23.25-.29.32-.27.32-.91.93-1.26,1.24l-.17.15c-.32.3-.75.47-1.2.64-1.14.42-1.85,1.26-2.11,2.48-.16-.6-.26-1.22-.2-1.67.13-1.08.7-2,1.3-2.97.15-.24.3-.48.44-.72.12-.2.11-.45-.01-.64s-.35-.3-.58-.28c-1.4.16-2.6.71-3.69,1.39.2-.7.72-1.29,1.28-1.94.08-.09.15-.18.23-.27.19-.22.2-.55.01-.78-.18-.23-.51-.3-.77-.16-.85.45-1.66.86-2.49,1.26-.69.33-1.43.61-2.12.87-.55.21-1.05.49-1.53.79.11-.25.26-.5.44-.73.33-.43.74-.8,1.17-1.2.2-.19.41-.38.62-.59.87-.86,1.58-1.76,2.18-2.75.1-.16.12-.35.05-.53-.06-.18-.21-.31-.38-.37-.62-.2-1.26-.29-1.94-.25-.36.02-.63.2-.82.34l-.06.04-.06.04.04-.12c.13-.43.37-.78.72-1.05l.11-.11c.25-.31.16-.6.11-.71-.05-.11-.2-.37-.6-.41-.08,0-.15,0-.22.02-.49.14-.98.16-1.48.05-.98-.21-2-.23-3.09-.07l.15-.13c.64-.62,1.43-.93,2.5-1.22.65-.18,1.22-.48,1.78-.77.19-.1.38-.2.57-.29.44-.21.51-.53.51-.7,0-.21-.08-.51-.51-.73-.57-.29-1.15-.31-1.71-.27.27-.14.52-.36.75-.69.17-.26.51-.38,1.05-.54l.06-.02c.23-.07.39-.27.42-.5.03-.23-.07-.47-.27-.6-.1-.06-.19-.12-.28-.18-.18-.11-.35-.22-.5-.33-.78-.56-1.29-1.14-1.59-1.82-.27-.61-.8-.92-1.18-1.09-.37-.17-.75-.31-1.13-.41.78-.15,1.54-.12,2.33.18,1.02.39,2.01.87,2.93,1.44h0c.08.07.33.27.68.2.26-.05.46-.26.49-.52.2-1.55-.34-2.68-1.18-3.67.79.23,1.61.63,2.52,1.22.24.16.56.12.77-.08.2-.2.24-.52.08-.77-.29-.46-.31-.5-.39-.73-.04-.11-.09-.24-.17-.44-.1-.24-.08-.53-.05-.87.01-.15.02-.31.02-.48,0-.56.24-1.17.53-1.76-.28-.24-.61-.51-.97-.8-.41.8-.78,1.66-.79,2.55M181.54,22.45c-.6.12-1.24.21-1.9.26l-.66.05.11,1.32.66-.05c.71-.06,1.4-.15,2.05-.28l.65-.13-.26-1.3-.65.13ZM173.61,23.55l.65.16c.7.17,1.4.28,2.06.34l.66.06.12-1.32-.66-.06c-.6-.05-1.23-.16-1.87-.31l-.65-.15-.31,1.29ZM197,22.87h1.33v-1.33h-1.33v1.33ZM160.23,22.97h1.03s0-1.94,0-1.94c-.34-.26-.68-.52-1.03-.78v2.72ZM168.58,21.34l.58.33c.59.33,1.21.64,1.84.92l.61.27.54-1.22-.61-.27c-.59-.26-1.17-.55-1.73-.86l-.58-.33-.65,1.16ZM157.64,22.97h1.03s0-3.87,0-3.87c-.12-.08-.24-.17-.36-.25h-.67s0,4.12,0,4.12ZM155.06,22.97h1.03s0-4.12,0-4.12h-1.03s0,4.12,0,4.12ZM152.48,22.97h1.03s0-4.12,0-4.12h-1.03s0,4.12,0,4.12ZM189,18.69h1.33v-1.33h-1.33v1.33ZM164.14,18.28l.54.39c.38.27.64.45.65.46l1.55,1.06.75-1.1-1.54-1.06s-.25-.18-.63-.45l-.54-.39-.77,1.08ZM147.33,26.56c0-.44.36-.8.8-.8s.8.36.8.8-.36.8-.8.8-.8-.36-.8-.8M147.56,19.8v-.03c0-.2.16-.37.35-.37h2.27v2.51h-2.79l.18-2.12ZM150.73,16.92c-.31,0-.56.25-.56.56v.8h-2.27c-.8,0-1.46.65-1.47,1.45l-.21,2.49-.54.54c-.37.37-.39.96-.39,1.08v2.72c0,.31.25.56.56.56h.43c.24.79.99,1.36,1.83,1.36,1.06,0,1.92-.86,1.92-1.92s-.86-1.92-1.92-1.92c-.73,0-1.39.42-1.71,1.05v-.84h.23c.31,0,.56-.25.56-.56s-.25-.56-.56-.56h-.22c.01-.08.03-.15.05-.18l.52-.52h3.17v3.52c0,.31.25.56.56.56h.69c.56-.4,1.15-.77,1.77-1.1h.03s-1.92-.01-1.92-.01v-1.15h4.46c1.31-.49,2.71-.86,4.19-1.12h-8.65v-5.69h5.83c-.57-.38-1.17-.75-1.79-1.12h-4.6ZM170.76,15.84h3.59v-1.33h-3.59v1.33ZM181.83,14.48h-4.21v.77h.77v3.52c.25-.01.51-.03.77-.06v-3.46h2.3v3.05c.25-.06.51-.13.77-.21v-2.84h.77v-.77h-1.15ZM159.84,15.12l.54.39c.25.18.48.35.69.52.2.16.51.38.91.68l.54.39.79-1.07-.54-.39c-.39-.28-.68-.5-.88-.66-.22-.17-.46-.35-.72-.54l-.54-.39-.79,1.07ZM141.57,29.54c-.39-.43-.64-.93-.7-1.52.58.13,1.05.43,1.44.86l.07.07-.74.66-.06-.07ZM132.93,30.05l2.3-2.19v4.46l-2.3-2.27ZM132.65,24.75l2.22,1.66-2.22,2.12v-3.77ZM133.05,23.44l2.17-1.76v3.38l-2.17-1.62ZM132.65,18.51l2.2,1.79-2.2,1.79v-3.58ZM136.53,16.89l1.84,1.34-1.84.99v-2.33ZM137.84,16.24l3.9-.04c-.18.16-.36.33-.53.49l-1.58.85-1.79-1.3ZM132.97,17.1l2.26-2.22v4.06l-2.26-1.84ZM132.65,13.69h1.94l-1.94,1.91v-1.91ZM132,12.39l-.65.65v24.05l.79-.57.51-.3v-4.61l2.77,2.74,1.11-.46v-13.19l2.86-1.54c-.33.64-.57,1.31-.72,2.01-.8,3.64,1.12,6.68,1.2,6.81h.02c.04.81.38,1.6.95,2.23l.39.43c.19.22.47.23.69.03l.37-.33.65.72c.2.22.47.23.69.03.41-.36,1.03-.34,1.39.06.36.4.32,1.02-.09,1.39-.41.37-1.03.34-1.39-.06-.2-.22-.47-.23-.69-.03-.22.2-.24.48-.04.69.71.8,1.96.85,2.78.12.81-.73.89-1.98.18-2.77-.6-.67-1.58-.81-2.36-.4l-.37-.41.37-.33c.22-.2.24-.48.04-.69l-.39-.43c-.5-.56-1.12-.93-1.83-1.11l.05-.03c-.15-.24-3.53-5.72,2.17-10.1l1.63-.88-.31-1.22-8.24.09v-1.92l-.65-.65h-3.88ZM170.76,13.62h3.59v-1.33h-3.59v1.33ZM155.34,12.53l.6.29c.57.28,1.15.58,1.72.91l.57.33.67-1.15-.57-.33c-.6-.35-1.2-.67-1.8-.96l-.6-.29-.58,1.2ZM159.46,57.75l.08-.06c.32-.27.71-.54,1.16-.81,3.49-2.15,11.68-4.75,16.24-4.57.72.37,1.4.77,2.05,1.21-4.79-.21-12.75,1.93-16.54,4.22-.38.23-.73.46-1.02.69-.01,0-.37.28-.61.46-.43-.38-.88-.76-1.35-1.13M156.63,55.76c.3-.26.64-.53,1.04-.79,3.19-2.11,9.35-4.17,13.66-4.67.16.04.33.07.49.11.68.16,1.34.35,1.99.57l.15.05c-4.74.44-11.11,2.64-14.4,4.79-.36.24-.69.47-.97.71-.05.04-.21.17-.35.29-.52-.37-1.05-.72-1.6-1.07M151.61,53.26c.59-.38,1.22-.74,1.87-1.06,2.18-1.1,4.65-1.86,7.25-2.23.6-.09,1.22-.15,1.83-.19h.17c.55-.03,1.65-.04,2.33-.05.34,0,.58,0,.58,0,.29,0,.59,0,.88,0-3.8,1.01-7.77,2.62-10.09,4.28-.38.27-.72.55-1,.82l-.14.14c-1.22-.68-2.47-1.27-3.68-1.71M156.32,42.91h1.19c.93,0,1.74.59,2.04,1.48v.14h-1.14c-.98,0-1.84-.67-2.08-1.61M160.86,44.25c.33-.81,1.11-1.34,1.98-1.34h1.19c-.24.94-1.1,1.61-2.08,1.61h-1.09v-.28ZM186.41,43.17c0-.67.54-1.22,1.21-1.22.67,0,1.22.54,1.22,1.21v2.12c-.25,0-.51,0-.77.01-.55-.02-1.09-.02-1.64,0v-2.12ZM172.92,48.98c-1.02-.27-2.06-.49-3.13-.64-.67-.1-1.34-.17-2.02-.21-.41-.03-.81-.04-1.22-.05.21-.26.4-.53.58-.8.34-.52.63-1.05.86-1.6.44-1.03.68-2.11.7-3.21.02-.69-.05-1.37-.2-2.04,1.16-.09,2.34-.12,3.53-.1.27,0,.54.02.81.03-.18.67-.28,1.35-.3,2.03-.02.88.1,1.75.34,2.6.15.53.36,1.06.61,1.57.05.09.09.18.14.28.29.55.65,1.09,1.06,1.62-.36.2-.72.41-1.06.63l-.1.06c-.2-.06-.41-.12-.61-.17M179.08,39.92l2.87-.02.05,5.88c-.08.02-.16.03-.25.05-.97.2-1.86.45-2.63.69l-.05-6.61ZM193.26,45.64l-.05-5.79,2.87-.02.05,6.44c-.96-.26-1.92-.47-2.87-.63M158.68,40.3h-.03c-.2-.06-.36-.21-.44-.4-.08-.2-.07-.42.04-.6l.57-.99c.23.09.48.15.72.19v1.14c0,.21-.1.41-.27.54-.12.09-.27.14-.42.14-.06,0-.12,0-.18-.02M161.03,40.18c-.17-.13-.27-.33-.27-.54v-1.14c.25-.04.49-.11.72-.19l.57.99c.11.19.12.41.04.6-.08.2-.24.34-.44.39h-.03c-.06.02-.12.03-.18.03-.15,0-.29-.05-.42-.14M156.12,38.82l-.02-.02c-.15-.15-.22-.36-.19-.57.03-.21.15-.4.34-.5l.99-.57c.16.19.34.37.53.53l-.57.99c-.11.18-.29.31-.5.34-.03,0-.06,0-.09,0-.18,0-.35-.07-.48-.2M163.61,39.01c-.21-.03-.4-.15-.5-.34l-.57-.99c.19-.16.37-.34.53-.53l.99.57c.18.11.31.29.33.5.03.21-.04.42-.19.57l-.02.02c-.13.13-.3.2-.48.2-.03,0-.06,0-.09,0M183.32,38.53l4.25-2.76,4.28,2.72.06,6.96c-.4-.05-.78-.08-1.17-.11-.36-.02-.71-.04-1.07-.05v-2.13c-.02-1.12-.93-2.02-2.05-2.01-1.12,0-2.02.92-2.01,2.03v2.15c-.06,0-.13,0-.2.01-.68.05-1.36.12-2.02.22l-.05-7.02ZM155.03,36.72c-.2-.08-.34-.24-.39-.44v-.03c-.06-.21-.02-.42.11-.59.13-.17.33-.27.54-.27h1.14c.04.25.11.49.19.72l-.99.57h0c-.11.06-.22.09-.34.09-.09,0-.18-.02-.26-.05M164.68,36.68l-1-.58c.09-.23.15-.48.19-.72h1.14c.21,0,.41.1.54.27.13.17.17.39.12.59v.03c-.06.2-.21.36-.4.44-.09.03-.17.05-.26.05-.11,0-.23-.03-.33-.08M163.68,33.44l.97-.56h.01l.02-.02c.18-.1.4-.12.6-.03.2.08.34.24.39.44v.03c.06.21.02.42-.11.59-.13.17-.33.27-.54.27h-1.14c-.04-.25-.11-.49-.19-.72M154.75,33.89c-.13-.17-.17-.39-.12-.6v-.03c.06-.2.2-.36.4-.44.2-.08.42-.07.61.04l.99.57c-.09.23-.15.48-.19.72h-1.14c-.21,0-.41-.1-.54-.27M157.6,34.77c0-1.41,1.14-2.55,2.55-2.55s2.55,1.14,2.55,2.55-1.15,2.55-2.55,2.55-2.55-1.15-2.55-2.55M188.23,31.75l2.87-.02v.75s-2.86.02-2.86.02v-.75ZM162.54,31.85l.57-.99c.11-.19.29-.31.5-.34.21-.03.42.04.57.19l.02.02c.15.15.22.36.19.57-.03.21-.15.4-.33.5l-.99.57c-.16-.19-.34-.37-.53-.53M156.24,31.81c-.19-.11-.31-.29-.34-.5-.03-.21.04-.42.19-.57l.02-.02c.15-.15.36-.22.57-.19.21.03.4.15.5.34l.57.99c-.19.16-.37.34-.53.53l-.99-.57ZM160.76,31.05v-1.14c0-.21.1-.41.26-.53.17-.13.39-.17.6-.12h.03c.2.06.36.21.44.4.08.2.07.41-.04.6l-.57.99c-.23-.09-.48-.15-.72-.19M158.25,30.25c-.11-.18-.12-.4-.04-.6.08-.19.24-.34.44-.39h.03c.21-.06.43-.02.6.11.17.13.26.32.26.53v1.14c-.25.04-.49.11-.72.19l-.57-.99ZM200.17,20.65c.17-.09.28-.27.28-.47v-1.07h.53v2.26c0,.17.08.33.22.42l1.01.73v4.17c-2.15-.25-4.27-.7-6.26-1.16-.9-.21-1.85-.43-2.84-.63v-2.39l4.55-3.3,1.96,1.38c.09.07.2.1.31.1.08,0,.16-.02.24-.06M156.35,9.4h-.02c2.82,1.29,5.3,3.18,7.7,5.01,2.99,2.29,6.09,4.65,9.84,5.8,3.02.92,6.49.7,10.31-.66v3.58l1.05-.38v-4.27l4.55-3.3,1.96,1.38c.16.11.37.13.55.04.18-.09.28-.27.28-.47v-1.07h.53v2.26c0,.17.08.33.22.42l1.01.73v1.87l-2.05,1.48c-.14.1-.22.26-.22.42v2.46c-2.46-.43-5.1-.65-7.64-.13l-.18.02c-.86.23-1.74.47-2.58.8-3.75,1.1-7.76.64-11.32-.98-3.73-1.7-6.81-4.53-10.11-6.9-3.69-2.65-7.7-5.11-12.35-5.25-3.2-.1-6.4.11-9.6.12v1.3c2.98,0,5.97-.16,8.95-.13,1.76.02,3.45.21,5.1.87,2.61,1.04,5.1,2.67,7.37,4.31,2.62,1.89,5.1,4.05,7.89,5.71-2.03-.11-4.07-.09-6.09.15-2.72.33-5.39,1.06-7.81,2.37-1.29.7-2.49,1.58-3.54,2.61l.94.94c.22-.21.44-.42.67-.62.11-.1.22-.19.34-.28l.19-.15.04-.03.09-.07c.5-.37,1.02-.72,1.56-1.03.55-.32,1.12-.61,1.7-.86.07-.03.13-.06.2-.09l.11-.05c.16-.06.32-.13.48-.19.29-.11.58-.21.87-.31,2.69-.88,5.43-1.15,8.26-1.13,1.68.01,3.37.13,5.04.3h.11c2.6,1.01,5.4,1.48,8.15,1.24-.17.19-.33.38-.5.56-.12.13-.25.26-.39.38l-.04.03-.1.07c-.09.05-.17.1-.26.15l-.07.03-.08.03c-.08.03-.17.06-.26.09-.19.06-.37.1-.56.14-.73.14-1.46.23-2.18.44-.72.21-1.44.51-2.09.9-1.4.83-2.43,2.04-3.06,3.54-.69,1.64-.84,3.43-.93,5.19-.31.02-.51.03-.51.03-.52.05-1.03.11-1.54.18,0,0,.52,1.76.54,1.83.11.53.17,1.07.15,1.61-.03,1.08-.31,2.13-.83,3.14-.29.57-.66,1.12-1.1,1.66-.24.29-.49.57-.77.84-.09,0-.17,0-.26,0-.15,0-.29,0-.44,0-.4,0-.8.02-1.2.05-.25.02-.5.04-.75.06-.28.03-.55.06-.83.09v-2.81h1.55c.23,0,.98-.09,1.3-.35.19-.16.46-.44.47-.45.62-.61.96-1.42.96-2.28,0-.29-.24-.53-.53-.53h-1.78c-.72,0-1.42.25-1.98.7v-1.11c.48.16,1.01.11,1.47-.12.46-.23.8-.64.95-1.13.64.15,1.3-.04,1.77-.51.47-.47.66-1.13.52-1.77.63-.19,1.11-.69,1.28-1.33.17-.65,0-1.31-.44-1.8.45-.49.62-1.16.44-1.8-.17-.64-.65-1.14-1.28-1.33.15-.64-.04-1.3-.52-1.77-.47-.47-1.13-.66-1.77-.51-.19-.63-.69-1.1-1.33-1.27-.65-.17-1.31-.01-1.8.44-.49-.45-1.15-.61-1.8-.44-.64.17-1.13.65-1.33,1.27-.64-.15-1.3.04-1.77.52-.47.47-.66,1.13-.52,1.77-.63.19-1.11.69-1.28,1.33-.17.65,0,1.32.44,1.8-.45.49-.62,1.15-.44,1.8.17.64.65,1.14,1.28,1.33-.15.65.04,1.3.52,1.77.47.47,1.13.66,1.77.51.16.52.51.93,1.01,1.16.48.22,1.03.24,1.52.06v1.18c-.57-.48-1.29-.74-2.04-.74h-1.78c-.29,0-.53.24-.53.53,0,.87.34,1.68.95,2.28.02.03.49.63,1.22.77.47.09,1.69.06,2.17.05v3.01c-2.7.48-5.25,1.37-7.5,2.59.01-.11.02-.17.02-.18v-.06c0-.07,0-.23,0-.47.25-.08.53-.18.8-.29.72-.27,1.44-.6,1.68-.71.34-.1.64-.33.83-.67v-.02c.17-.31.22-.68.16-1.04v-.06s-.04-.15-.08-.33v-.04c-.02-.06-.03-.12-.05-.19-.03-.17-.08-.37-.14-.57-.05-.22-.12-.41-.17-.57-.02-.06-.04-.12-.06-.18l-.11-.36-.02-.04c-.1-.27-.27-.51-.48-.69-.06-.05-.12-.1-.19-.14h-.02s-.14-.08-.14-.08h-.02c-.29-.14-.6-.17-.89-.1-.26.03-1.04.1-1.8.23-.27.05-.56.1-.83.16-.05-.09-.1-.17-.15-.24-.05-.07-.09-.13-.11-.17l-.04-.06-.03-.05c-.04-.05-.14-.19-.28-.38.15-.22.32-.46.48-.7.42-.64.81-1.33.94-1.57.22-.28.32-.65.28-1.03v-.03c-.06-.34-.23-.67-.5-.93l-.04-.04s-.11-.1-.25-.23l-.03-.03-.15-.13c-.13-.12-.3-.27-.48-.4l-.9-.67-.04-.03c-.37-.25-.82-.34-1.24-.25-.31.06-.58.22-.77.46-.2.18-.78.7-1.32,1.25-.19.19-.39.41-.58.62-.09-.04-.18-.08-.26-.11-.12-.05-.21-.08-.24-.09l-.28-.1-.16-.06-.1-.04c0-.26-.01-.55-.03-.84-.02-.41-.05-.85-.11-1.33l-.06-.48c.01-.29-.07-.58-.25-.83-.24-.34-.64-.58-1.08-.65-.09-.02-.25-.04-.45-.06h-.11c-.19-.02-.43-.04-.66-.05-.34-.02-.62-.04-.87-.02h-.34c-.45.03-.88.21-1.16.53-.21.23-.33.51-.35.8-.03.11-.06.28-.11.5-.08.4-.16.87-.23,1.31-.05.3-.08.6-.11.84l-.06.02-.15.03-.26.06c-.08.02-.22.05-.4.11-.06.02-.12.04-.19.07-.14-.19-.32-.42-.52-.67-.48-.6-1.01-1.18-1.2-1.38-.17-.26-.43-.45-.74-.54-.42-.13-.89-.06-1.27.17l-.96.57-.95.69c-.12.08-.22.18-.31.28v2.1c.15.34.37.81.61,1.27.12.24.27.5.41.75l-.13.14c-.1.11-.18.21-.25.31h0s-.18.24-.18.24l-.09.12h-.01s-.03.05-.03.05c-.1-.03-.21-.06-.33-.1v1.92c.17.06.31.1.4.13l.71.25.45-.77c.08-.13.17-.25.25-.35.05-.07.1-.13.14-.18l.16-.22.03-.04.08-.09h.01c.12-.14.29-.33.49-.55l.6-.6-.34-.56-.08-.13-.07-.12c-.19-.33-.41-.71-.59-1.06-.29-.56-.56-1.15-.68-1.43l.68-.49.73-.43c.22.24.65.71,1.05,1.2.33.4.6.77.73.96l.03.03.1.14.41.58.66-.24.11-.04h.03c.28-.11.52-.19.69-.25h.02c.06-.03.1-.04.12-.04l.3-.07c.06-.01.12-.03.2-.04h.02c.12-.04.27-.08.42-.1l.9-.11.06-.75c0-.12.06-.74.16-1.42.06-.4.14-.85.21-1.22.03-.14.05-.26.07-.35h.18c.17-.02.44,0,.66.01.24.02.48.03.67.04h.08s.1.02.1.02l.04.38c.05.43.08.84.1,1.21.03.59.03,1.15.02,1.44v.72s.96.25.96.25c.08.02.16.04.22.06l.14.05.14.05.25.09s.12.05.26.1c.07.03.21.09.33.15.08.04.18.09.28.13l.1.05.65.33.51-.59.12-.15c.25-.28.54-.6.81-.87.44-.45.93-.89,1.15-1.09l.72.53c.11.08.22.18.34.29l.17.15.09.09c-.17.29-.48.85-.82,1.36-.3.45-.61.89-.82,1.17l-.43.58.47.56.07.08h.01c.24.34.4.57.53.72h0s.01.02.01.02h0s.01.02.01.02l.02.03c.07.11.21.36.41.69l.05.09.03.05.03.06.32.65.71-.16c.28-.07.83-.19,1.41-.28.62-.11,1.26-.18,1.57-.21l.04.11.21.69c.06.26.12.5.16.7l.02.12c-.31.14-.89.4-1.47.62-.51.19-1.02.36-1.35.46l-.69.22.05.73v.1s.01.02.01.02c0,.4,0,.68,0,.89h0s-.04.4-.1.98h0s-.02.12-.02.12l-.08.44c-.49.34-.97.71-1.42,1.09,0,0-1.28.79-2.74,1.38-3.86-.69-8.98-.68-13.14.71l.1-.06c-.09-.15-.23-.38-.4-.68h0s-.06-.14-.06-.14l-.33-.62-.69.16v3.6c4.68-2.44,11.64-2.22,15.78-1.17h0c4.59,1.04,10.11,4.53,12.49,7.51l1.48-.52-.04-.06c-2.27-3.1-7.63-6.67-12.47-8.1.28-.16.76-.45.85-.53.22-.19.44-.38.67-.56,4.65,1.36,10.32,5.5,12.39,8.55l.03.04,1.45-.51c-.08-.12-.16-.25-.24-.37-.46-.69-1.09-1.42-1.82-2.16.37-.26,1.29-.89,1.56-1.05,3.54-2.05,12.95-4.9,17.71-3.67.13.09.24.17.24.17,1.31.94,3.26,1.62,5.22,1.75.11,0,.22.01.33.02.31.01.61,0,.91-.01-.06.12,2.2-.31,2.87-.64.08-.03.16-.06.23-.1.84-.33,1.69-.41,2.71-.17.4.09.8.37,1.17.65l.13.1c.17.14.33.27.49.38,1.58,1.19,3.31,2.38,5.36,2.59,1.23.13,2.59.01,3.83-.26.22-.05.43-.1.64-.15.72-.19,1.32-.65,2.07-.74,1.1-.13,2.64-.34,3.86.08-.28-.57-.55-1.14-.6-1.74-.91-.04-.05,0-1.06-.06-1.54-.1-2.62.04-4.29.7,0,0-.28.09-.69.2-.71.19-1.83.43-2.68.4h-.18c-1.5-.14-3.29-.85-4.67-1.76-.11-.07-.22-.15-.32-.23-.48-.36-.95-.77-1.46-1.11-.27-.18-.56-.34-.87-.45-1.45-.53-2.96-.46-4.2.09-.99.43-2.21.59-3.45.54-2.36-.08-5.12-2.02-5.12-2.02-1.72-1.46-3.76-2.65-6.01-3.54h-.03s.02-.02.02-.02c2.07-1.16,4.44-2.01,6.95-2.48.45-.08.9-.16,1.36-.22.53-.07,1.06-.12,1.6-.16.68-.05,3.08-.05,3.08-.05.68,0,1.35,0,2.03.05,4.49.3,8.69,1.78,11.89,4.13.16-.56.58-1.18.95-1.55-1.65-1.2-3.75-2.18-5.94-2.89l-.05-7.54c0-.18-.07-.35-.2-.48-.13-.13-.3-.2-.49-.2l-3.55.02v-.37c0-.23-.12-.45-.32-.57l-4.65-2.95v-.71s3.55-.02,3.55-.02c.18,0,.35-.07.48-.2.13-.13.2-.3.2-.49v-2.12c-.01-.18-.08-.36-.21-.48-.13-.13-.3-.2-.48-.2h0l-4.24.02c-.18,0-.36.07-.48.2-.13.13-.2.3-.2.49l.02,3.51-4.62,3c-.2.13-.31.34-.31.58v.37s-3.55.02-3.55.02c-.18,0-.36.07-.48.2-.13.13-.2.3-.2.49l.05,7.77c-.08.03-.15.06-.23.09-.36.14-.71.29-1.06.45-.09.04-.18.09-.27.13-.52-.63-.94-1.29-1.26-1.96-.25-.52-.43-1.05-.55-1.58-.13-.57-.19-1.14-.18-1.71.01-.59.1-1.17.27-1.74.02-.07.56-1.83.56-1.83-.71-.07-1.42-.13-2.15-.16,0-.29,0-.58,0-.86,0-.22.02-.44.04-.66,0-.1.02-.21.03-.31l.02-.11.03-.18c.04-.22.09-.43.15-.65.03-.09.06-.18.09-.27l.04-.1.06-.12c.1-.2.23-.39.36-.58l.11-.16.07-.09c.07-.09.14-.18.22-.27.14-.17.3-.32.46-.47.07-.06.14-.13.22-.19l.09-.07.08-.06c.16-.11.33-.22.5-.32.08-.04.15-.08.23-.12l.14-.07.13-.05c.32-.12.65-.22.98-.29.06-.01.15-.04.22-.04h.03s.14-.02.14-.02c.17-.02.34-.02.51-.02.17,0,.33,0,.5.02.08,0,.16.01.25.02h.1s.05.02.05.02c.41.07.81.17,1.2.29.09.03.18.06.27.1l.05.02.05.02c.11.06.23.11.34.18.22.13.45.25.7.33,1.31.42,2.71-.07,4-.31.24-.04.48-.08.72-.12v-1.35c-.19.03-.37.07-.56.1-.53.1-1.06.2-1.59.32-.16.04-.32.07-.48.09l-.16.03h-.09c-.1.02-.21.04-.31.04-.22.02-.43.03-.65.01h-.16s0-.01,0-.01h0c-.08-.02-.15-.03-.23-.05-.06-.02-.12-.04-.19-.06h0c-.09-.05-.19-.1-.28-.15-.29-.17-.59-.3-.91-.42-.77-.28-1.6-.43-2.42-.45-1.7-.04-3.35.59-4.56,1.8-.79.78-1.43,1.75-1.68,2.84-.21.9-.25,1.83-.24,2.76-.56,0-1.22.02-1.83.05.08-1.45.19-2.85.67-4.24.13-.38.22-.59.41-.95.09-.17.18-.33.29-.49.05-.07.09-.14.14-.21l.08-.12.05-.07c.21-.27.45-.52.71-.74.07-.06.13-.11.2-.17l.1-.08s-.09.06.02-.02c.14-.1.28-.2.43-.3.29-.19.6-.36.92-.5.07-.03.14-.07.22-.1l.14-.06c.17-.07.35-.13.53-.19.69-.22,1.39-.33,2.1-.45.8-.14,1.55-.37,2.18-.89.57-.46.97-1.08,1.52-1.55.1-.09.2-.16.39-.28.16-.11.33-.21.5-.3.17-.09.35-.18.53-.26l.09-.04h.02s.04-.02.04-.02c.1-.04.2-.08.31-.12.66-.25,1.33-.44,2.01-.62l.22-.05c1.14-.24,2.39-.35,3.72-.3,2.53.09,5.05.67,7.47,1.24,2.19.51,4.46,1.04,6.75,1.21.21.02.43.02.65.02,2.39,0,4.9-.93,6.63-2.45-.32-.26-.67-.55-1.06-.86-1.5,1.21-3.72,2.04-5.45,2v-4.53c0-.17-.08-.33-.22-.42l-1.01-.73v-2.52c0-.29-.23-.52-.52-.52h-1.57c-.29,0-.52.23-.52.52v.59l-1.45-1.01c-.18-.13-.43-.13-.61,0l-1.98,1.43v-1.38c0-.17-.08-.33-.22-.42l-1.01-.73v-2.52c0-.29-.23-.52-.52-.52h-1.57c-.29,0-.52.24-.52.52v.59l-1.45-1.01c-.18-.13-.43-.13-.61,0l-5.07,3.67c-.11.08-.18.21-.21.34-3.72,1.39-6.89,1.68-9.69.88-3.51-1-6.53-3.13-9.27-5.28l-.12-.09c-2.49-1.96-4.85-3.81-7.64-5.15-.34.37-.72.64-1.13.91M179.61,6.31c-.1,0-.18.08-.18.18v1.21h-1.21c-.1,0-.18.08-.18.18v1.39c0,.1.08.18.18.18h1.21v1.21c0,.1.08.18.18.18h1.39c.1,0,.18-.08.18-.18v-1.21h1.21c.1,0,.18-.08.18-.18v-1.39c0-.1-.08-.18-.18-.18h-1.21v-1.21c0-.1-.08-.18-.18-.18h-1.39ZM163.96,7.5h1.33v-1.33h-1.33v1.33ZM168.94,7.5h1.33v-1.33h-1.33v1.33ZM175.82,3.59c-.32,0-.57.26-.57.57v5.95h-5.95c-.32,0-.57.26-.57.57v4.78c.38.25.76.5,1.15.73v-4.94h5.37v7.26c.37.08.76.15,1.15.19V4.74h7.82v12.16l1.15-.83v-4.81h5.37v2.3l.24.17c.21-.28.54-.48.91-.52v-2.52c0-.32-.26-.57-.57-.57h-5.95v-5.95c0-.32-.26-.57-.57-.57h-8.97ZM176.9.1l-.2.15h0s-4.04,2.92-4.04,2.92V.54c0-.17-.08-.33-.22-.42h0s0-.02,0-.02c-.18-.13-.43-.13-.61,0l-.2.15h0s-4.04,2.92-4.04,2.92V.54c0-.17-.08-.33-.22-.42h0s0-.02,0-.02c-.18-.13-.43-.13-.61,0l-5.07,3.67c-.14.1-.22.26-.22.42v5.87c.35.24.7.49,1.05.74v-6.34l4.02-2.91v2.61c0,.17.08.33.22.42l.03-.02v.04c.17.13.42.13.6,0l.2-.15h0s4.02-2.91,4.02-2.91v2.61c0,.17.08.33.22.42l.03-.02v.04c.17.13.42.13.6,0l.2-.15h0s4.02-2.91,4.02-2.91v1.37h1.05V.54c0-.17-.08-.33-.22-.42h0s0-.02,0-.02c-.09-.07-.2-.1-.31-.1s-.21.03-.31.1"/>
    </clipPath>
    <linearGradient id="Degradado_sin_nombre_3" data-name="Degradado sin nombre 3" x1="3924.36" y1="648.28" x2="3925.06" y2="648.28" gradientTransform="translate(-97422.81 -590825.52) rotate(90) scale(150.55 -150.55)" gradientUnits="userSpaceOnUse">
      <stop offset="0" stop-color="#e72577"/>
      <stop offset=".19" stop-color="#e72577"/>
      <stop offset=".26" stop-color="#bd387f"/>
      <stop offset=".46" stop-color="#427099"/>
      <stop offset=".59" stop-color="#39789e"/>
      <stop offset=".79" stop-color="#2090ae"/>
      <stop offset="1" stop-color="#02aec2"/>
    </linearGradient>
  </defs>
  <g id="Capa_1-2" data-name="Capa 1">
    <g>
      <path class="cls-3" d="M238.24,46.38v5.17c-.98.16-1.88.24-2.71.24-2.08,0-3.64-.45-4.67-1.36-1.03-.9-1.55-2.29-1.56-4.17,0-1.85.53-3.25,1.58-4.19,1.05-.94,2.59-1.41,4.6-1.41.86,0,1.67.09,2.45.27v1.97c-.77-.18-1.51-.26-2.24-.26-.9,0-1.64.13-2.21.37-.57.24-.99.63-1.27,1.17-.28.54-.42,1.24-.42,2.11,0,1.22.29,2.12.87,2.68.58.57,1.47.85,2.67.85.15,0,.38,0,.67-.01v-3.43h2.23Z"/>
      <path class="cls-3" d="M242.2,51.19c-.77-.41-1.36-1.03-1.78-1.86-.42-.83-.63-1.87-.63-3.1s.21-2.27.63-3.1c.42-.83,1.01-1.45,1.78-1.86.77-.41,1.68-.61,2.73-.61s1.97.21,2.73.62c.77.41,1.36,1.03,1.78,1.86.42.83.63,1.86.63,3.09s-.21,2.26-.63,3.09c-.42.83-1.01,1.45-1.78,1.87-.77.41-1.68.62-2.72.62s-1.97-.2-2.73-.61M246.91,49.01c.46-.57.68-1.48.68-2.73s-.23-2.23-.69-2.81c-.46-.58-1.12-.88-1.98-.88s-1.53.29-1.99.86c-.46.57-.69,1.48-.69,2.73s.23,2.24.68,2.82c.46.58,1.12.87,1.99.87s1.53-.29,1.99-.86"/>
      <path class="cls-3" d="M259.55,46.91c.36.43.54,1,.54,1.71s-.18,1.28-.53,1.74c-.36.47-.93.82-1.72,1.06-.79.24-1.83.36-3.12.36-.46,0-.97-.02-1.53-.06-.56-.04-1.07-.09-1.53-.15v-10.53c.51-.11,1.08-.2,1.7-.27.62-.07,1.21-.1,1.79-.1,1.61,0,2.78.25,3.53.74.74.5,1.11,1.26,1.11,2.28,0,.58-.15,1.08-.45,1.5-.3.42-.73.71-1.28.87.64.14,1.14.42,1.5.85M254,42.54v2.68h1.54c.72,0,1.23-.11,1.53-.34.31-.23.46-.58.46-1.06,0-.33-.07-.6-.21-.81-.14-.21-.36-.36-.66-.46-.3-.1-.71-.15-1.22-.15s-.97.04-1.45.13M256.85,49.87c.37-.11.63-.28.78-.5.16-.22.24-.51.24-.86,0-.53-.16-.91-.49-1.15-.33-.24-.86-.36-1.6-.36h-1.78v2.97c.37.04.82.06,1.35.06.63,0,1.13-.06,1.5-.17"/>
      <rect class="cls-3" x="261.45" y="40.8" width="2.4" height="10.86"/>
      <polygon class="cls-3" points="268.18 49.75 273.54 49.75 273.54 51.66 265.81 51.66 265.81 40.8 273.46 40.8 273.46 42.71 268.18 42.71 268.18 45.15 272.71 45.15 272.71 47.06 268.18 47.06 268.18 49.75"/>
      <path class="cls-3" d="M281.45,51.66l-2.78-3.99h-.13c-.34,0-.72-.01-1.14-.04v4.02h-2.36v-10.62c.52-.11,1.08-.2,1.66-.27.59-.07,1.17-.1,1.74-.1,1.57,0,2.75.29,3.54.86.78.57,1.18,1.45,1.18,2.63,0,.77-.19,1.42-.56,1.95-.37.53-.92.92-1.62,1.19l3.09,4.37h-2.61ZM277.4,45.83c.41.04.81.07,1.18.07.79,0,1.38-.14,1.76-.41.38-.27.57-.72.57-1.33s-.18-1.04-.54-1.32c-.36-.28-.92-.41-1.68-.41-.43,0-.86.04-1.29.11v3.3Z"/>
      <polygon class="cls-3" points="292.31 40.8 294.57 40.8 294.57 51.66 292.16 51.66 287.43 44.39 287.43 51.66 285.17 51.66 285.17 40.8 287.58 40.8 292.31 48.07 292.31 40.8"/>
      <path class="cls-3" d="M298.57,51.19c-.77-.41-1.36-1.03-1.78-1.86-.42-.83-.63-1.87-.63-3.1s.21-2.27.63-3.1c.42-.83,1.01-1.45,1.78-1.86.77-.41,1.68-.61,2.73-.61s1.97.21,2.73.62c.77.41,1.36,1.03,1.78,1.86.42.83.62,1.86.62,3.09s-.21,2.26-.63,3.09c-.42.83-1.01,1.45-1.78,1.87-.77.41-1.68.62-2.72.62s-1.97-.2-2.73-.61M303.29,49.01c.46-.57.68-1.48.68-2.73s-.23-2.23-.69-2.81c-.46-.58-1.12-.88-1.98-.88s-1.53.29-1.99.86c-.46.57-.69,1.48-.69,2.73s.23,2.24.69,2.82c.46.58,1.12.87,1.99.87s1.53-.29,1.99-.86"/>
      <path class="cls-3" d="M311.72,51.6v-10.55c.51-.11,1.07-.2,1.68-.26.61-.06,1.2-.09,1.78-.09,2,0,3.49.45,4.49,1.36,1,.91,1.5,2.3,1.5,4.19,0,1.29-.24,2.35-.71,3.16-.48.82-1.19,1.42-2.14,1.8-.95.38-2.16.58-3.62.58-1.04,0-2.03-.06-2.98-.18M317.23,49.47c.49-.24.86-.62,1.11-1.15.25-.53.37-1.23.37-2.09s-.12-1.55-.37-2.08c-.25-.53-.62-.92-1.11-1.16-.5-.24-1.12-.37-1.88-.37-.39,0-.8.04-1.22.11v7.05c.31.03.72.05,1.21.05.78,0,1.41-.12,1.91-.36"/>
      <polygon class="cls-3" points="325.13 49.75 330.49 49.75 330.49 51.66 322.76 51.66 322.76 40.8 330.42 40.8 330.42 42.71 325.13 42.71 325.13 45.15 329.67 45.15 329.67 47.06 325.13 47.06 325.13 49.75"/>
      <polygon class="cls-3" points="335.69 51.66 335.69 40.8 338.09 40.8 338.09 49.67 343.09 49.67 343.09 51.66 335.69 51.66"/>
      <path class="cls-3" d="M351.44,51.66l-.9-2.9h-4.04l-.9,2.9h-2.34l3.52-10.86h3.5l3.52,10.86h-2.36ZM347.08,46.86h2.87l-1.43-4.63-1.43,4.63Z"/>
      <path class="cls-3" d="M358.58,40.99c1.11-.22,2.21-.32,3.29-.32,1.64,0,2.86.32,3.67.95.81.64,1.21,1.63,1.21,2.97s-.4,2.27-1.19,2.93c-.79.66-1.97.99-3.53.99-.22,0-.57,0-1.05-.03v3.18h-2.4v-10.67ZM363.85,46.22c.38-.33.57-.87.57-1.62s-.19-1.29-.57-1.64c-.38-.34-.96-.51-1.76-.51-.4,0-.78.03-1.12.09v4.11c.36.04.72.07,1.07.07.82,0,1.42-.17,1.8-.5"/>
      <path class="cls-3" d="M374.69,51.66l-2.78-3.99h-.13c-.34,0-.72-.01-1.14-.04v4.02h-2.36v-10.62c.52-.11,1.08-.2,1.66-.27.59-.07,1.17-.1,1.74-.1,1.57,0,2.75.29,3.54.86.78.57,1.18,1.45,1.18,2.63,0,.77-.19,1.42-.56,1.95-.37.53-.92.92-1.62,1.19l3.09,4.37h-2.61ZM370.63,45.83c.41.04.81.07,1.18.07.79,0,1.38-.14,1.76-.41.38-.27.57-.72.57-1.33s-.18-1.04-.54-1.32c-.36-.28-.92-.41-1.68-.41-.43,0-.86.04-1.29.11v3.3Z"/>
      <path class="cls-3" d="M379.93,51.19c-.77-.41-1.36-1.03-1.78-1.86-.42-.83-.63-1.87-.63-3.1s.21-2.27.63-3.1c.42-.83,1.01-1.45,1.78-1.86.77-.41,1.68-.61,2.73-.61s1.97.21,2.73.62c.77.41,1.36,1.03,1.78,1.86.42.83.62,1.86.62,3.09s-.21,2.26-.63,3.09c-.42.83-1.01,1.45-1.78,1.87-.77.41-1.68.62-2.72.62s-1.97-.2-2.73-.61M384.65,49.01c.45-.57.68-1.48.68-2.73s-.23-2.23-.69-2.81c-.46-.58-1.12-.88-1.98-.88s-1.53.29-1.99.86c-.46.57-.69,1.48-.69,2.73s.23,2.24.69,2.82c.46.58,1.12.87,1.99.87s1.53-.29,1.99-.86"/>
      <polygon class="cls-3" points="396.3 40.8 398.64 40.8 395.15 51.66 391.6 51.66 388.11 40.8 390.62 40.8 393.44 49.85 396.3 40.8"/>
      <rect class="cls-3" x="399.62" y="40.8" width="2.4" height="10.86"/>
      <polygon class="cls-3" points="411.12 40.8 413.38 40.8 413.38 51.66 410.97 51.66 406.24 44.39 406.24 51.66 403.98 51.66 403.98 40.8 406.39 40.8 411.12 48.07 411.12 40.8"/>
      <path class="cls-3" d="M416.42,50.45c-.97-.9-1.45-2.3-1.45-4.2s.5-3.24,1.49-4.18c1-.94,2.43-1.41,4.32-1.41.84,0,1.62.09,2.33.26v1.97c-.71-.17-1.43-.25-2.15-.25-.8,0-1.45.12-1.96.37-.51.24-.89.63-1.14,1.16-.25.53-.38,1.21-.38,2.07s.12,1.57.37,2.1c.25.53.62.91,1.12,1.15.49.24,1.13.36,1.91.36.7,0,1.44-.11,2.23-.34v1.97c-.35.11-.74.19-1.17.25-.43.06-.85.09-1.28.09-1.86,0-3.28-.45-4.24-1.35"/>
      <rect class="cls-3" x="424.44" y="40.8" width="2.4" height="10.86"/>
      <path class="cls-3" d="M436.09,51.66l-.9-2.9h-4.04l-.9,2.9h-2.34l3.52-10.86h3.5l3.52,10.86h-2.36ZM431.74,46.86h2.87l-1.43-4.63-1.43,4.63Z"/>
      <path class="cls-3" d="M443.23,51.6v-10.55c.51-.11,1.07-.2,1.68-.26.61-.06,1.2-.09,1.78-.09,1.99,0,3.49.45,4.49,1.36,1,.91,1.5,2.3,1.5,4.19,0,1.29-.24,2.35-.71,3.16-.48.82-1.19,1.42-2.14,1.8-.95.38-2.16.58-3.62.58-1.04,0-2.03-.06-2.98-.18M448.74,49.47c.49-.24.86-.62,1.11-1.15.24-.53.37-1.23.37-2.09s-.12-1.55-.37-2.08c-.25-.53-.62-.92-1.11-1.16-.49-.24-1.12-.37-1.88-.37-.39,0-.8.04-1.22.11v7.05c.31.03.72.05,1.21.05.78,0,1.41-.12,1.91-.36"/>
      <polygon class="cls-3" points="456.64 49.75 462 49.75 462 51.66 454.27 51.66 454.27 40.8 461.93 40.8 461.93 42.71 456.64 42.71 456.64 45.15 461.18 45.15 461.18 47.06 456.64 47.06 456.64 49.75"/>
      <path class="cls-4" d="M247.07,70.91c.78.95,1.18,2.19,1.18,3.74s-.39,2.79-1.17,3.82c-.78,1.02-2.03,1.8-3.76,2.33-1.73.53-4,.8-6.83.8-1.01,0-2.13-.04-3.36-.13-1.23-.09-2.35-.2-3.36-.34v-23.06c1.13-.25,2.37-.44,3.72-.59,1.35-.15,2.66-.22,3.93-.22,3.52,0,6.09.54,7.72,1.63,1.63,1.09,2.44,2.75,2.44,4.99,0,1.26-.33,2.36-1,3.28-.66.92-1.6,1.55-2.8,1.9,1.41.3,2.5.92,3.29,1.87M234.91,61.34v5.86h3.38c1.57,0,2.69-.25,3.36-.75.67-.5,1.01-1.27,1.01-2.32,0-.73-.15-1.32-.45-1.77-.3-.45-.78-.78-1.45-1-.67-.21-1.56-.32-2.67-.32s-2.13.1-3.17.29M241.15,77.4c.8-.24,1.37-.6,1.72-1.08.34-.48.51-1.11.51-1.88,0-1.16-.36-2-1.07-2.52-.71-.52-1.88-.79-3.5-.79h-3.9v6.51c.81.09,1.79.13,2.96.13,1.39,0,2.48-.12,3.28-.36"/>
      <path class="cls-4" d="M253.57,79.12c-1.63-1.67-2.44-4.22-2.44-7.67v-13.92h5.27v14.43c0,1.86.39,3.22,1.18,4.08.78.86,1.99,1.29,3.62,1.29s2.84-.43,3.62-1.29c.78-.86,1.18-2.22,1.18-4.08v-14.43h5.17v13.92c0,3.45-.81,6.01-2.42,7.67-1.61,1.67-4.13,2.5-7.55,2.5s-6-.83-7.62-2.5"/>
      <polygon class="cls-4" points="280.52 77.14 292.26 77.14 292.26 81.31 275.33 81.31 275.33 57.53 292.1 57.53 292.1 61.71 280.52 61.71 280.52 67.06 290.45 67.06 290.45 71.24 280.52 71.24 280.52 77.14"/>
      <polygon class="cls-4" points="311.18 57.53 316.12 57.53 316.12 81.31 310.84 81.31 300.49 65.39 300.49 81.31 295.54 81.31 295.54 57.53 300.82 57.53 311.18 73.46 311.18 57.53"/>
      <path class="cls-4" d="M324.87,80.28c-1.68-.89-2.98-2.25-3.9-4.07-.92-1.82-1.38-4.08-1.38-6.78s.46-4.96,1.38-6.78c.92-1.82,2.22-3.18,3.9-4.07,1.68-.89,3.67-1.34,5.98-1.34s4.3.45,5.98,1.35c1.68.9,2.98,2.26,3.89,4.08.91,1.82,1.37,4.08,1.37,6.76s-.46,4.94-1.38,6.77c-.92,1.82-2.22,3.18-3.9,4.08-1.68.9-3.67,1.35-5.97,1.35s-4.3-.45-5.98-1.34M335.2,75.51c1-1.25,1.5-3.25,1.5-5.98s-.5-4.88-1.51-6.16c-1-1.28-2.45-1.92-4.34-1.92s-3.35.63-4.36,1.88c-1,1.25-1.51,3.25-1.51,5.98s.5,4.9,1.5,6.17c1,1.27,2.45,1.91,4.36,1.91s3.35-.63,4.35-1.88"/>
      <path class="cls-4" d="M348.08,81.35c-1.15-.18-2.22-.43-3.2-.75v-4.24c1,.32,2.1.58,3.29.76,1.2.19,2.32.28,3.36.28,1.54,0,2.65-.23,3.33-.7.69-.47,1.03-1.15,1.03-2.06,0-.5-.11-.92-.31-1.26-.21-.34-.56-.63-1.06-.88-.49-.25-1.19-.5-2.08-.73l-1.79-.47c-2.13-.53-3.72-1.35-4.77-2.47-1.05-1.12-1.58-2.58-1.58-4.38,0-2.3.84-4.08,2.51-5.34,1.68-1.26,4.15-1.89,7.42-1.89,1.04,0,2.05.06,3.02.18.97.12,1.85.29,2.63.51v4.26c-.76-.24-1.61-.42-2.55-.55-.94-.13-1.88-.19-2.81-.19-1.78,0-3.06.24-3.83.71-.77.48-1.16,1.15-1.16,2.03,0,.48.09.88.27,1.21.18.32.49.6.93.83.43.23,1.05.46,1.83.68l1.8.45c2.32.58,4.02,1.43,5.11,2.54,1.09,1.11,1.63,2.58,1.63,4.4,0,1.51-.38,2.82-1.14,3.92-.76,1.1-1.86,1.95-3.29,2.53-1.43.58-3.15.88-5.15.88-1.16,0-2.32-.09-3.47-.26"/>
      <path class="cls-4" d="M388.23,81.31l-1.96-6.35h-8.84l-1.97,6.35h-5.12l7.7-23.78h7.66l7.7,23.78h-5.17ZM378.7,70.81h6.28l-3.14-10.14-3.14,10.14Z"/>
      <rect class="cls-4" x="395.77" y="57.53" width="5.25" height="23.78"/>
      <path class="cls-4" d="M419.35,81.31l-6.09-8.73h-.29c-.75,0-1.58-.03-2.5-.08v8.81h-5.17v-23.25c1.14-.25,2.35-.45,3.64-.6s2.56-.22,3.82-.22c3.45,0,6.03.62,7.75,1.87,1.72,1.25,2.58,3.17,2.58,5.76,0,1.69-.41,3.12-1.23,4.27-.82,1.16-2.01,2.03-3.55,2.6l6.76,9.56h-5.72ZM410.47,68.56c.9.1,1.77.14,2.59.14,1.74,0,3.02-.3,3.85-.9.83-.6,1.24-1.57,1.24-2.91s-.39-2.28-1.18-2.88c-.79-.61-2.02-.91-3.68-.91-.94,0-1.88.08-2.82.24v7.21Z"/>
      <polygon class="cls-4" points="432.68 77.14 444.42 77.14 444.42 81.31 427.5 81.31 427.5 57.53 444.26 57.53 444.26 61.71 432.68 61.71 432.68 67.06 442.62 67.06 442.62 71.24 432.68 71.24 432.68 77.14"/>
      <path class="cls-4" d="M450.21,81.35c-1.15-.18-2.22-.43-3.2-.75v-4.24c1,.32,2.1.58,3.29.76,1.2.19,2.32.28,3.36.28,1.54,0,2.65-.23,3.33-.7.69-.47,1.03-1.15,1.03-2.06,0-.5-.11-.92-.31-1.26-.21-.34-.56-.63-1.06-.88-.49-.25-1.19-.5-2.08-.73l-1.79-.47c-2.13-.53-3.71-1.35-4.77-2.47-1.05-1.12-1.58-2.58-1.58-4.38,0-2.3.84-4.08,2.51-5.34,1.67-1.26,4.15-1.89,7.42-1.89,1.04,0,2.05.06,3.02.18.97.12,1.85.29,2.63.51v4.26c-.76-.24-1.61-.42-2.55-.55-.94-.13-1.88-.19-2.81-.19-1.78,0-3.06.24-3.83.71-.77.48-1.16,1.15-1.16,2.03,0,.48.09.88.27,1.21.18.32.49.6.93.83.43.23,1.05.46,1.83.68l1.8.45c2.32.58,4.02,1.43,5.11,2.54,1.09,1.11,1.63,2.58,1.63,4.4,0,1.51-.38,2.82-1.14,3.92-.76,1.1-1.86,1.95-3.29,2.53-1.43.58-3.15.88-5.15.88-1.16,0-2.32-.09-3.47-.26"/>
      <g class="cls-5">
        <rect class="cls-1" x="110.3" y="-12.5" width="129.05" height="146.49" transform="translate(-9.57 76.64) rotate(-24.09)"/>
      </g>
      <g>
        <path class="cls-4" d="M0,55.37v-11.57h3.09l3.38,7.64h-.31l3.28-7.64h3.09v11.57h-2.37v-9.35h.5l-3.35,7.68h-2.09l-3.46-7.68h.61v9.35H0Z"/>
        <path class="cls-4" d="M14.58,55.37v-11.57h2.54v11.57h-2.54Z"/>
        <path class="cls-4" d="M19.13,55.37v-11.57h2.55l5.48,8.42h-.44v-8.42h2.39v11.57h-2.56l-5.47-8.42h.44v8.42h-2.39Z"/>
        <path class="cls-4" d="M31.13,55.37v-11.57h2.54v11.57h-2.54Z"/>
        <path class="cls-4" d="M38.57,55.52c-.56,0-1.12-.04-1.68-.13-.56-.09-1.08-.21-1.55-.36v-2.06c.33.11.68.2,1.05.28.37.08.74.13,1.11.17.37.04.73.06,1.06.06.78,0,1.32-.12,1.65-.36.32-.24.49-.57.49-1,0-.36-.12-.64-.36-.84-.24-.2-.68-.39-1.32-.55l-.88-.23c-1.01-.26-1.78-.65-2.29-1.19-.52-.54-.78-1.25-.78-2.14,0-1.1.4-1.97,1.2-2.59.8-.62,2-.93,3.61-.93.52,0,1.02.03,1.49.09.47.06.89.14,1.25.25v2.06c-.37-.11-.78-.2-1.23-.27-.45-.06-.91-.09-1.37-.09-.6,0-1.08.06-1.44.17-.36.11-.61.27-.76.47-.15.2-.23.44-.23.7,0,.34.1.6.31.8.21.19.6.37,1.17.52l.87.23c.75.18,1.37.42,1.85.72.49.3.84.67,1.07,1.1.23.44.35.95.35,1.54,0,.74-.18,1.38-.55,1.91-.37.54-.9.94-1.59,1.23-.69.28-1.53.43-2.51.43Z"/>
        <path class="cls-4" d="M46.83,55.37v-9.46h-3.65v-2.11h9.84v2.11h-3.64v9.46h-2.55Z"/>
        <path class="cls-4" d="M54.09,55.37v-11.57h8.12v2.03h-5.61v7.5h5.69v2.03h-8.2ZM55.6,50.47v-2.03h5.81v2.03h-5.81Z"/>
        <path class="cls-4" d="M63.83,55.37v-11.31c.35-.08.72-.15,1.12-.21.39-.06.8-.11,1.23-.14.42-.03.85-.05,1.28-.05,1.66,0,2.91.3,3.75.9.84.6,1.26,1.54,1.26,2.82,0,.82-.2,1.51-.6,2.07-.39.55-.96.97-1.69,1.25-.73.28-1.61.42-2.62.42-.23,0-.44,0-.63-.01-.19,0-.39-.02-.59-.03v4.28h-2.49ZM67.6,49.23c.84,0,1.46-.14,1.87-.44.41-.29.61-.76.61-1.41,0-.43-.09-.78-.26-1.05-.17-.27-.43-.47-.78-.6-.35-.13-.79-.2-1.33-.2-.27,0-.51.01-.73.03-.22.02-.44.05-.65.09v3.52c.15.01.29.02.42.03.13.02.27.02.41.02.14,0,.28,0,.44,0ZM70.64,55.37l-3.72-5.35h2.72l3.78,5.35h-2.77Z"/>
        <path class="cls-4" d="M74.54,55.37v-11.57h2.54v11.57h-2.54Z"/>
        <path class="cls-4" d="M84.16,55.52c-1.1,0-2.06-.21-2.87-.64-.82-.43-1.45-1.08-1.9-1.96-.45-.88-.68-1.99-.68-3.33s.22-2.46.68-3.33c.45-.88,1.09-1.53,1.9-1.96.82-.43,1.77-.64,2.87-.64s2.06.21,2.87.65c.82.43,1.45,1.08,1.9,1.96.45.88.68,1.99.68,3.32s-.23,2.45-.68,3.33c-.45.88-1.09,1.53-1.9,1.96-.82.43-1.77.65-2.87.65ZM84.16,53.47c.59,0,1.1-.13,1.53-.39.42-.26.75-.67.98-1.23.23-.56.34-1.3.34-2.21s-.11-1.71-.34-2.29c-.23-.58-.56-.99-.98-1.26-.42-.26-.93-.39-1.52-.39s-1.1.13-1.52.38c-.43.26-.75.66-.98,1.23-.23.56-.35,1.3-.35,2.22s.11,1.72.34,2.29c.23.58.55.99.98,1.25.42.26.93.39,1.53.39Z"/>
        <path class="cls-4" d="M98.28,55.49c-.32,0-.66,0-1.02-.02-.35-.01-.71-.03-1.08-.06-.36-.03-.72-.06-1.08-.11v-11.24c.36-.08.74-.14,1.15-.2.41-.06.83-.1,1.25-.13.43-.03.85-.05,1.26-.05,2.1,0,3.68.48,4.76,1.43,1.07.96,1.61,2.45,1.61,4.47,0,1.38-.25,2.5-.76,3.37-.51.87-1.27,1.51-2.28,1.92-1.02.41-2.29.61-3.81.61ZM98.94,53.42c.8,0,1.47-.13,2-.38.53-.25.93-.66,1.19-1.23.26-.57.39-1.31.39-2.24s-.13-1.67-.4-2.23c-.27-.57-.67-.98-1.2-1.23-.53-.26-1.19-.39-1.98-.39-.2,0-.41.01-.65.03-.23.02-.45.05-.66.09v7.53c.21.02.43.04.64.04.21,0,.43.01.65.01Z"/>
        <path class="cls-4" d="M106.77,55.37v-11.57h8.12v2.03h-5.61v7.5h5.69v2.03h-8.2ZM108.27,50.47v-2.03h5.81v2.03h-5.81Z"/>
        <path class="cls-4" d="M15.06,72.29v-9.46h-3.65v-2.11h9.84v2.11h-3.64v9.46h-2.55Z"/>
        <path class="cls-4" d="M22.33,72.29v-11.31c.35-.08.72-.15,1.12-.21.4-.06.8-.11,1.23-.14.42-.03.85-.05,1.27-.05,1.66,0,2.91.3,3.75.9.84.6,1.26,1.54,1.26,2.82,0,.82-.2,1.51-.6,2.07-.39.55-.96.97-1.69,1.25-.73.28-1.6.42-2.62.42-.23,0-.44,0-.63-.01-.19,0-.39-.02-.59-.03v4.28h-2.49ZM26.09,66.15c.84,0,1.46-.14,1.87-.44.41-.29.61-.76.61-1.41,0-.43-.09-.78-.26-1.05-.17-.27-.43-.47-.78-.6-.35-.13-.79-.2-1.33-.2-.26,0-.51.01-.73.03-.22.02-.44.05-.65.09v3.52c.15.01.29.02.43.03.13.02.27.02.41.02.14,0,.29,0,.44,0ZM29.13,72.29l-3.72-5.35h2.72l3.78,5.35h-2.77Z"/>
        <path class="cls-4" d="M31.36,72.29l3.73-11.57h3.7l3.73,11.57h-2.5l-3.23-10.46h.27l-3.23,10.46h-2.47ZM33.96,69.2l.55-2.02h4.88l.54,2.02h-5.96Z"/>
        <path class="cls-4" d="M43.61,72.29v-11.57h2.55l5.48,8.42h-.44v-8.42h2.39v11.57h-2.55l-5.47-8.42h.44v8.42h-2.39Z"/>
        <path class="cls-4" d="M58.5,72.43c-.56,0-1.12-.04-1.68-.13-.56-.09-1.08-.21-1.55-.36v-2.06c.33.11.68.2,1.05.28.37.08.74.13,1.11.17.37.04.72.06,1.06.06.78,0,1.32-.12,1.65-.36.32-.24.49-.57.49-1,0-.36-.12-.64-.36-.84-.24-.2-.68-.39-1.32-.55l-.88-.23c-1.01-.25-1.78-.65-2.29-1.19-.52-.54-.78-1.25-.78-2.14,0-1.1.4-1.97,1.2-2.59.8-.62,2-.93,3.61-.93.52,0,1.02.03,1.49.09.47.06.89.14,1.25.25v2.06c-.37-.11-.78-.2-1.23-.27-.45-.06-.91-.09-1.37-.09-.6,0-1.08.06-1.44.17-.36.11-.61.27-.76.47-.15.2-.23.44-.23.7,0,.34.1.6.31.8.21.19.6.37,1.17.52l.87.23c.75.18,1.37.42,1.85.72.49.3.84.67,1.07,1.1.23.44.35.95.35,1.54,0,.74-.18,1.38-.55,1.91-.37.54-.9.94-1.59,1.23-.69.28-1.53.43-2.51.43Z"/>
        <path class="cls-4" d="M64.56,72.29v-11.36c.54-.11,1.1-.19,1.68-.26.57-.06,1.18-.1,1.82-.1,1.72,0,3.01.34,3.88,1.01.87.67,1.3,1.73,1.3,3.18,0,1.37-.42,2.4-1.26,3.11-.84.71-2.09,1.06-3.76,1.06-.2,0-.39,0-.56-.01-.18,0-.36-.02-.55-.03v3.4h-2.54ZM68.25,67.03c.87,0,1.51-.18,1.92-.53.41-.35.61-.93.61-1.72s-.2-1.39-.6-1.75c-.41-.36-1.03-.54-1.87-.54-.24,0-.44,0-.63.02-.19.01-.38.04-.56.08v4.38c.19.02.38.04.55.05.18.01.38.02.59.02Z"/>
        <path class="cls-4" d="M79.85,72.43c-1.1,0-2.06-.21-2.87-.64-.82-.43-1.45-1.08-1.9-1.96-.45-.88-.68-1.99-.68-3.33s.22-2.46.68-3.33c.45-.88,1.08-1.53,1.9-1.96.82-.43,1.77-.64,2.87-.64s2.06.21,2.87.65c.81.43,1.45,1.08,1.9,1.96.45.88.68,1.99.68,3.32s-.22,2.45-.68,3.33c-.45.88-1.09,1.53-1.9,1.96-.82.43-1.78.65-2.87.65ZM79.85,70.39c.6,0,1.1-.13,1.53-.39.42-.26.75-.67.98-1.23.23-.56.34-1.3.34-2.21s-.11-1.71-.34-2.29c-.23-.58-.56-.99-.98-1.26-.42-.26-.93-.39-1.52-.39s-1.09.13-1.52.38c-.42.26-.75.66-.98,1.23-.23.56-.34,1.3-.34,2.22s.11,1.72.34,2.29c.23.58.55.99.98,1.25.43.26.93.39,1.53.39Z"/>
        <path class="cls-4" d="M86.93,72.29v-11.31c.35-.08.72-.15,1.12-.21.4-.06.8-.11,1.23-.14.42-.03.85-.05,1.27-.05,1.66,0,2.91.3,3.75.9.84.6,1.26,1.54,1.26,2.82,0,.82-.2,1.51-.59,2.07-.4.55-.96.97-1.69,1.25-.73.28-1.61.42-2.62.42-.23,0-.44,0-.63-.01-.19,0-.39-.02-.59-.03v4.28h-2.49ZM90.7,66.15c.84,0,1.46-.14,1.87-.44.41-.29.61-.76.61-1.41,0-.43-.09-.78-.26-1.05-.17-.27-.43-.47-.78-.6-.35-.13-.79-.2-1.33-.2-.27,0-.51.01-.74.03-.22.02-.44.05-.65.09v3.52c.15.01.29.02.43.03.13.02.27.02.41.02.14,0,.29,0,.44,0ZM93.74,72.29l-3.72-5.35h2.72l3.78,5.35h-2.77Z"/>
        <path class="cls-4" d="M99.5,72.29v-9.46h-3.65v-2.11h9.84v2.11h-3.64v9.46h-2.55Z"/>
        <path class="cls-4" d="M106.76,72.29v-11.57h8.12v2.03h-5.61v7.5h5.69v2.03h-8.2ZM108.27,67.39v-2.03h5.81v2.03h-5.81Z"/>
      </g>
    </g>
  </g>
</svg>